<mxfile host="65bd71144e">
    <diagram id="kwtEU3x5gjueZOuybq61" name="desktop">
        <mxGraphModel dx="904" dy="92" grid="1" gridSize="10" guides="1" tooltips="1" connect="1" arrows="0" fold="1" page="1" pageScale="1" pageWidth="827" pageHeight="1169" background="none" math="0" shadow="1">
            <root>
                <mxCell id="0"/>
                <mxCell id="1" parent="0"/>
                <mxCell id="2" value="" style="rounded=0;whiteSpace=wrap;html=1;fillColor=#9e63cb;strokeColor=#140041;fontFamily=Poppins;fontSource=https%3A%2F%2Ffonts.googleapis.com%2Fcss%3Ffamily%3DPoppins;shadow=1;" parent="1" vertex="1">
                    <mxGeometry x="10" y="10" width="800" height="80" as="geometry"/>
                </mxCell>
                <mxCell id="5" value="ACESSAR" style="rounded=1;strokeColor=#140041;fillColor=#9e63cb;spacing=0;fontFamily=Poppins;fontSource=https%3A%2F%2Ffonts.googleapis.com%2Fcss%3Ffamily%3DPoppins;fontStyle=0;absoluteArcSize=1;arcSize=8;imageAlign=center;html=1;spacingBottom=-1;fontColor=#e5e5e5;" parent="1" vertex="1">
                    <mxGeometry x="690" y="30" width="100" height="40" as="geometry"/>
                </mxCell>
                <mxCell id="8" value="SuperMarket" style="rounded=0;whiteSpace=wrap;html=1;fillColor=#9e63cb;strokeColor=none;image=data:image/png,iVBORw0KGgoAAAANSUhEUgAAAgAAAAIACAYAAAD0eNT6AAAABHNCSVQICAgIfAhkiAAAAAlwSFlzAAAOxAAADsQBlSsOGwAAABl0RVh0U29mdHdhcmUAd3d3Lmlua3NjYXBlLm9yZ5vuPBoAACAASURBVHic7N17fFTltTfw37NnMskkk3sgCUkg3AOBEAgzewYCRLzivSrWatXW2mp7Wnusnranl3N6OZ7a03uttra2alurVVtrW8VbNQqYmUAUAuF+TUiAAEmAJJNkZvbz/gH6IgZI8qw9e2ayvp9P/yjCehZJmL32c1mPAGNsRJYtW5Z85MiRC4UQ5wOoBDANQCaANGsz+4CjADqklFs1TQsAeNXv99cBMCzOK+YsX77c1tLSMg3AbABzAJRKKUsAFADIA2ADkAEgCKAXJ7623QBaAWwFsF0Isc1utzesWrWq04q/A2PDIaxOgLF4U1VVNd5ut38JwC0Asq3OZwT2CiF+KaX8ZSAQOGZ1MlbyeDzThBCXSimXCiEW40QBp8qQUq4XQrwJoDYcDr/a0NDQSxCXMVJcADA2RFVVVal2u/0bAO4B4LA6HwJHhBBf9fv9vwUgrU4mWrxeb6mU8hYA1+HE277ZugH8DcCTJ4uBUBTGZOycuABgbAjcbne5pmlPA5hpdS4meDEcDt/a0NBw2OpETKR5vd7LpZR3ArgYgGZRHu1SyoeSk5MfWrly5SGLcmAMABcAjJ2T1+utkVI+jxPrv4lqu5Ty4vr6+t1WJ0KppqbG3tfX91Ep5X8CKLc6n1MEhRCPa5r2w7fffnun1cmw0YkLAMbOQtf1agCvAHBanYvZhBDNUsqFgUBgn9W5UPB6vVdIKX8AYLrVuZxFCMCDmqZ9t66ursPqZNjowgUAY2fg8XgmCiEaEJ8b/UZqvaZpvrq6uqDViYyUruszhRA/l1Keb3Uuw9AB4LvhcPhB3iPAosVmdQKMxaLly5fbjh079iKAKVbnEmUFUsrs1tbWF61OZLiWLVuWnJeX900AfwQw1ep8hskJ4BJN0y4bP3583b59+9qtToglPi4AGBuEy+X6NyHEp63OwyJVJSUlL+/bt6/V6kSGyu12V/b19b0CYDni+3OtUEr5qZKSEjllypS6PXv2cL8GZhqrdsIyFrOqqqpSAfyX1XlYSJNSfs/qJIZIeL3eu4QQfiTOCQ2HlPJ/gsHgKrfbXWJ1MixxcQHA2GnsdvsnhBBjrM7DYue53W631UmcTU1NjUvX9WellD8TQiRbnY8JdCFEg67r51mdCEtMXAAw9mGftDqBWKBp2q1W53AmCxYsmNzX11cH4BqrczHTyUL0Va/X+xXwpm1GjAsAxk7h8/mKAMy3Oo8YcbXVCQzG5/MtiEQiASnlLKtziRKblPJ+XdcfXr58eTzvb2AxhgsAxk4RiUSWWJ1DDCnSdT2mdtN7PJ7LDcN4FUCu1blY4NPNzc3P1tTUpFidCEsMXAAwdgohxGh5qxySWHrL1nX940KI5wCkWp2Lha4OBoMvV1VVUVxaxEY5LgAY+6BSqxOIJZqmTbQ6BwDweDy3AHgMgN3iVGLB4qSkpFd1XU/k1tQsCrgAYOyD+EP1FFJKy980PR7PrUKIRxHf5/tJSSndAF6sqKhIszoXFr+4mmbsg5SPk2XOK0ByoYsiFyXdWw6jd2eXUgwppaXH67xe7zVSyt8iyi8rYzKdqJg8BmXjc1Cc50LxmHQkJ9mQnurAQDiC3r4wjvX0o7n9OPYePIamPUewcc9hhMJR7duzMDU19fmamprLa2tr+6I5MEsMXAAwRs0mIJJiYHJNi+9TYz6fb4lhGE8gSm/+JWPScWHVBJxXWYxJ47LO/pszACAdsybmvf9LfQNhvLujHa+s3Yu3GlvRNxA2NV8AkFKe39fX98zy5cuvfuaZZyKmD8gSChcAjLGYM3/+/FmGYTwPwPQd796Zhbh+yTR4ygogxMiLphSHHb6Z4+CbOQ49fSH8o24X/vzGVrR39RJm+2FSysubm5t/DOCLpg7EEg4XAIyxmLJo0aIxAwMDfwdg6v6Dyilj8Nkr5nzgLZ5KWkoSbjhvOq5dNBX/9O/CIy9uQFd3P/k4p7hL1/VtgUDgQTMHYYklBuYpGWPshPLycsfAwMBfAJh2+iA3IwXfutWHB+8635SH/6mS7Bo+Uj0FT33zMixfMg2awgzDEPzU5/NdYuYALLFwAcAYixnp6ek/A7DIrPgXVk3AE1+7FBdWTTBriEGlOx3492vn4cEvLsW4XNM2iNoNw3jS7XZPMmsAlli4AGCMxQSPx3OjlPJOM2I7k+34+k06vnWrD+mpDjOGGJKKSWPw+FcvMbMAydI07elly5Yl4uVIjBgXAIwxy3k8nmlCiF+aEXtsVip+8YWluFSPiZ5GSE2241u3+vDlG9yw20z5CK7q6Oj4sRmBWWLhAoAxZqmqqqokAE/BhCZM5aW5ePTLF6NsfA51aGVXLZiM7396EZzJpuzF/pzX6/2oGYFZ4uACgDFmqaSkpK8LIeZSx503dSx++m/nIcsVu7Ph3pmFeODz5uQopXy4qqpqPHlgljC4AGCMWcbn882VUn6NOm71rCL8+LM1SDXn7ZrUjAm5eOALS80oAjLtdvuvAcR3RyhmGi4AGGOWKC8vdxiG8RiAJMq4nrICfPe2hUiyx8/H26TCTPzs385DBv0GxYt1Xf80dVCWGOLnXwhjLKG4XK5vAqigjFk5ZSzu//QiOOLo4f+eKUVZ+OGdS8zYE/BDr9dbSh2Uxb/4+1fCGIt7uq5XAfgqZcwJ+en43u3VSE6K30sDy0tz8a1bfdQNg9INwzDlhAWLb1wAMMaiavny5TYAvwVhK/IsVzJ+cMcSM6bQo656VhG+cA3tnkghxCVer/ca0qAs7nEBwBiLqubm5k8BmEMVT9MEvvlxL4ryrL+Cmcr1S6bhCt9k6rA/qaioSKMOyuIXFwCMsahZuHBhOoBvU8a8+YIZ8M4spAwZE760vArTS+j6F0gpx6emppKfuGDxK/bPyDAWXQOqAY43tqN702GKXJTIAUM5hhBC+etxqlAo9HUhRAFVvLlTxuL2y2ZThYspDruG735yAT71w1dwvJfm2yClvNfj8TxeX1+/jSQgi2tcADB2Cillp8qd8ABg9EeA/ghRRpY7QhXI4/FMFEKQ3Vmfk56Cb32CfMNcTCnKc+GrH3Pj679dTRXSIYS4D8ByqoAsfvESAGMfdNDqBGKJEOIAVSxN074PIIUilhAC/32LF3kZTopwMa1mTgn15UHXer1enTIgi09cADB2Ck3T3rE6h1gipST5eui6Xi2lvI4iFgBc7p2E+dPJVhJi3j3XV2FsVipVOCGlvJ8qGItfXAAwdgohRMDqHGLIkUAgsIMo1v0gakmbk56Cz11FdoggLqQ7Hbjn+irKkDVer3cZZUAWf7gAYOwUdXV1OwCstzqPGPFXAFI1iNfrrQGwUDmbk7547byEOO8/XNWzilAzp4QsnpTyf8H3BIxqXAAwdhop5Z+sziEWaJr2BEUcyst+vDMLccG80XvB3d3L58HlJLs6odLr9V5OFYzFHy4AGDtNJBJ5GECn1XlYLFBXV/emahC32+0GcCFBPkhx2PGl60inweNOXoYTn7h4Flk8KeXXyYKxuMPHABk7TUNDw1Gv1/tjKeV3rc7FKlLK/6aIo2ka2dv/jeeXJVS3v5G6bvFUPL96B1oOHacIp3u93gv8fv9rZ/tNy5cvt7W1teUPDAxkCyEyALz3v/cJIboAhDVN6zIM41BOTs6hFStW9FMkabaTlyXNAE4cBXY6netqa2v7rM3KfLz+w9ggysvLHS6Xay2AxOwyc3Z/DAQCN6sGmT9//iybzdYIgs+ZbFcynvnWFXA6+J0FAFZvbMOXf/0WVbjaQCBwHvD+g3CelHI6gDIAUwGMB5CPkb0wdkop9wghdkopdwohNgJoDIfDmxsaGkJE+Y+Iz+dzGoZxB4A7cOLveqoBKeXfNE37vt/vT9iTQVwAMHYGbre7UtO0VQBGU//0XUlJSfNXrVqlvATi9XqfkFLeSJHU3dfNw3WLp1GEShif//nreHdHO1W4N6SUs4QQY6gCnsMAgAYAb0spVzkcjjcpfuaGYvny5baWlpabpZTfAXCuXZURIcT/+P3+b4NgQ2ys4QKAsbPweDyXCyH+BiB+75gduiNSygUUbWLdbvckTdO2geDrVpTnwhNfuxRJdt6ydKqNuw/jjp+cdeY+nkSklAEhxEsAng8EAo1mDOLz+ZZIKX8hpRzuRoqfBwIBsi6WsWI0fKgxNmKtra3bioqKNgshrkBi75nZr2naJYFAoIkiWHFx8VeEEIsoYn3puipMK86mCJVQxmanYmtLB1raSfYCWE0TQpQAOA/AZ4uLi28oLi7OLywsbGtra1NuR+3z+XKKiop+IaX8KU4sZwyXXlxcvLW1tXWjai6xhGcAGBsCXderATwFoMjqXEzQEA6Hr2loaGimCHZy/0QLgLGqsaYWZ+N3914ETeOPqsFs39eJT/7gFUiZcLPT75EAVkkpH7HZbM/U1dUFhxtA1/VrATwE9Z/H/d3d3aVNTU2kF2RZiefUGBuCQCCwqr+/f5YQItF6BPxXOBz2UT38ASA9Pf1qEDz8AeC2S8r54X8WU4uz4SlL6JbIAsAiIcTjkUhkr67r39F1fUhv8BUVFWkej+c3AJ4Fzc9jocvluoIgTszgAoCxIVq3bl2XlPLHVudBKRAIfJd6N7aU8g6KOCVj0lE9KxEnXGjduPT0DeyJ6eQGxW9KKffquv6gruvFZ/q9bre70ul0NgghbifO4QLKeFbjAoAxRsbj8UzDiXVcZR89bzq//Q/B/On5mDqK9kgIIZIBfE5KucPj8fx8wYIFH3i793q912uathrAdOqxTx6PTBiJvKmJsZiUlJmCybd7lGJE+kLY/mAdUUZ0hBCfBsHeoixXMpZ5StUTOodQ2EBgy37UNe3H/o4edHWr961JsmvIdiWjbHwOllQUY2JhJkGmZ3fj0jJ8+/ex9/NgppOFwBcikcgtHo/nf1NTU38eDAa/JqX8Bkza3yalTKiXZi4AGIsyLcmG1BK1h0IkaGkPlUEtW7YsuaOj4xMUsT5SPQUpJjf9eXP9Pvzib+vQdqTblPgrN7TikRc3YklFMb547VzK63w/ZOncEvzqH+txsLPXtDFiWKYQ4vvBYPDrOK07ITUhxCEz40dbQlUzjDHrdHZ2Xg0gTzWOw67hmkVTCTI6s1//sxFf++0q0x7+75FSonZ9C27/4SvY0txh2jh2m4braxJqdnokTH34n+SPwhhRwwUAY4yElPIGijgXu0uRk55CEWpQT7+5DY+/ssm0+IM5cqwP//HwWzjQ0WPaGFf4JlHeFMg+LGQYxtNWJ0GJCwDGmDJd1zMAXEIR66oFkynCDKrtSDceen6dafHPpuN4H378bINp8dNSknDBvAmmxWd4dM2aNS1WJ0GJCwDGmLKTnRKVX9snjcvCjAm5BBkN7vevbEIobJgW/1xWb2zD1hbzlgIu1SeaFnuU22G32++1OglqXAAwxpRJKa+niHOZiQ8wQ0qs3NBqWvyhemOdeS+R5aW5KM2PxlL4qLLVMIylq1evToiey6fiAoAxpqSqqipTSnmxahy7TcPF7lKCjAbXerib5Jifqs3N5l56t4xnAahEpJQP2O12d6JN/b+HjwEyxpTY7fYrASSrxvHNLES2SznMGXUe7zMt9nAcOTrsdvbDcomnFA//oxGGCfcDOJMEMlNtsGsCyUkCKXYBmyYQDBkwJNDTb6CrN4K+UNzfTfA6gLvr6+tNuZUwVnABwBhTIoS4nuIymst9kwiyOTOnyX0FhsqZbG4eeRlOeGYUwL9pv3Ks+aVOLJ2RhvwMO/Iz7EhLHtqkcX9Y4vDxCNq6QmjrCmPP4QFsb+/H/q6IKYUJod1Synvq6+ufszqRaIiNfxGMsbhUWVmZJaW8SDVOTnoKvDMKKVI6o4LcNGiagGFY+wAqynOZPsZl+kSSAkAIwDd5+A2Mku0CRdl2FGV/8BHT029g8/5+vNscxPqWfrR2xlRDq8fsdvtdibjWfyZcADDGRiwlJeViKaVDNc6SOcWw28zdkpTudKC8NBcbdh02dZxzWVA+zvQxFs0uRrrTgeNBtZtrN+zrQ9gA7ETfmrRkDfNLnZhf6gQAtHSEsHpHL1Zv78U+64qBIwDuDAQCz1qVgFV4EyBjTMWFFEEWV5zxYjdS11Sb22HwXPIynVg02/wbDpPsGhbMUi80+kISm9rM2ztRkpOEGzyZeOCmQnzv2nycV5YGhz26F0BJKQ1N0zZGddAYwQUAY2zEKKb/01MdmDuF4rr2c7tg3njMmqjcrXjE7ryiwvQ9AO+hKjQa9pi7afE9ZYXJuOuCXPzmE0W4wZMJV0p0Hk9CiDGGYbzmdrvN3YQSg7gAYIyNiNfrnQGgRDWOb2YhkqjmmM9B0wTuu20hCnLSojLeqa5bPBXLPNE7oqfPoPm6vrM3uqcnMlI0fNSTiTtrcqI5bJGmaa+efrVwouMCgDE2IhRn/wGgZo5yDTEseZlO/PpLF6Ji0piojGe3abjzijn492vnRWW896Qm2zFvqvrzbF9nCAeOhgkyGrqefgOPrjK3X8IgJkUikRcqKiqiXx1ahAsAxthIKa//JyfZ4CkroMhlWHIzUvDQF5fiW7f6UDFpDDRBv+6ckerAZfpE/PFry3DzhTMgTBjjXBbNptlbsa4lurMAv3mrE0e6I1Ed86T5Tqfz9xglz0Y+BcAYG7by8nIHgMWqcTxlBVFbEz+dEAIXVk3AhVUTcLx3AO1dveg8rt4p0G4TyM10YlyuCzYt+g/9Uy2qKMKPnmmAap+Gjfv6cMks848vAkD9riDe3GrerYlDcI2u618PBALftTKJaOACgDE2bC6XayEA5SfCQoKd6hTSUx1IT1U+zRhz8jKcKBufg817jyjFaWrrh5Qn+gKYqS8k8as3zbssaRi+5fV61/r9/hVWJ2KmUTHNwRgjp7z7HwDcZeY2/2FANUGR1dUbQWuX+ef0n117FJ09lkz9n06TUv5R1/XonE+1CBcAjLGRWKQaoCjPhYLs4XeZY8Pjm0lTZDW1mnuR0oFjYTz/7jFTxximHAAJvR8gYf9ijDFzVFVVJQFQ3tJeNS2fIBt2LlOLs5GWkqQcp6nN3ALgsVVdCBumDjES53k8nnutTsIsXAAwxoZF07RKAE7VOFwARIcmBGZPUm9+1NRq3kmA5o4QArt6TYuv6Dsej2ea1UmYgQsAxtiwaJrmUY0hhCA5o86GhqLTYkdPBPu7zOkHYPGu/7MSQiQD+JnVeZiBCwDG2HB5VQNMLMxETnoKRS5sCKhaLW85YM4ywI6DapcWnapmehqyU21k8QBACHGJruvXkQaNAVwAMMaGS1cNUMVv/1E1vSSbpN/CjnZzCoAjPTQzC+NzkvC5pTn4ryvHIC2Z/PH2k4ULF6ZTB7USFwCMsSHzeDy5AKaoxonW5T/sBLtNw6xS9X0AO9vNOQqYRHAVtF0T+OKFuUiyCZTmOfC1y8bAbiNtXFAcCoW+RRnQalwAMMaGTAihA1D+VJ0xIaoXvTAAcwlmXXYdGkDYUOsqOJiiLPXZiUsrXJg05v83c5o5LhmfJb5QSAhx14IFCyaTBrUQFwCMseFQXv/PzUjB2Cw+/x9tlZPVLz8KRSRaOug3As4qTlb689mpNnzUk/mhX186Iw2XzyGdtbdHIpGvUQa0EhcAjA2P+oHqGHLyTP+w/ojqmGXjc1VDsBEoG59DcjfBjoP0+wCWTHcprdnfvCALqY7B//ytC7IwNV+twDh9OK/XW0oZ0CpcADA2DFLKSaoxtGT1Hcoa0QU6DodjwjD/yEzVMaeXZKuGYCOQnGTD+PwM5Tjb2+l27L/HmSRwo/fDb/BDUVGSgprpZ77B124T+NLFuWcsEEYgSUr5n1TBrMQFAGPDc55qAHua+qUzQhPQHOqFhJRyyH+fmpoaF4DhFgwfMmM8r/9bZWpRlnKM3YfoCwAAWDYrHUvO8iAfTEGGHf9+Qe45LykqyLDj1oXqf/dTfMLtdpdQBrQCFwCMDVF1dXW2EOJ61TgOov73ybnD+7AcjJTyM0P9vb29vWUg2ABYxgWAZaYQFAD7OsMwFK8XHowQwF0X5OLKygxoQ7h2sKwwGd/9yFhkpw2tEL5wpgsVxWS9Jxw2m+3LVMGswgUAY0MUCoW+C0B5DjVljPqDGwCSaeLM13X95iH+XuXp//zsVG4AZKFpxerLL30hA+3HzLmxTxPAJ6uz8L/XjoV3cuqgx/gm5Cbh80tzcN81+chLH/pSmBDAZ8/LgZ3oqSelvKWiooLmH7NFaBYSGUtwHo/nFgCfo4jlHD+ytc7TpY7PRFfjfopQD3o8ns319fVrz/H7lAuAaL/99/SFENh8AJv2HkbH8X6EYuS2mbQUO/Kz0+CdUYiy8dkQQ3jjpTC1iGb/RUtHCAWZ5j0+phck4yvLkhEMSezrCOFoMAKHXaAkJ0mpy19Bph1XVGbguXdIbh3MSElJuRYnbgyMS1wAMHYWNTU19t7e3i8LIb4DgulvYdfgmkDzIZw2kexhmi6E+Jeu67cFAoG/nOX3KRcAEwtoip9z6RsI44+vbcZTb2xFsN+c/vUUHnlxAyaPy8Lnr66Ep6zA9PGyXMnIy3Di8LGgUpx9nSG4JyrfB3VOziSBqfnqe2ZOtdydiTe29KCrl2QW4zbEcQHASwCMDWLhwoXpXq/39mAwuE4IcR8Akubirkk5ZDv4XRNzYHOSnUrMAPCs1+t9zePxXF1TUzNYksoFwPix5ndSPXwsiM/97HU8+lJTTD/837OzrQtf+uWb+O2KjVEZb2qx+j6Alg5zOgJGgzNJ4Jp56qchAEAIsTieGwNxAcDYKbxe7zxd138VDodbpZS/AVBOGT+7chxZLKEJZM0pJIsHAFLK84UQzwWDwb1er/dbCxcuHAcAPp/PKYSYqBrf7AIgOBDGPb98E1tbOkwdh5qUEr9bsRFPvr7V9LEo9gE0x3EBAAAXz3INefPgOYhwOPxJikBW4AKAMQBut/t8XdffklI2ALgDAPmTyuZMQs78YtKYYxcpP5PPZJyU8r9DodAuj8fzUCQSuRgEnxcU59DP5ld/X48drV2mjmGmh55fh937j5o6xqRx6jMArZ1hmHAQIGocdoGrKml+FjVNuxkEy4NW4AKAjWper3ehrusrNU17DcAiM8fK840nObt/KmdRBtInm9dZTwiRLIT4rBDiOdVYeZlOpKWY10ixvasXz7+907T40WBIid+8uMHUMYoIjo/2hQx00qyhW+aCmWlISVJ/bkspx/t8vlkEKUUdFwBsVHK73QW6rj8upVwJoNrs8YRNQ97CUlNij1mi3JwwKkrGmDv9X7t+X8zs8lfxdlMbek3cuzAuz0US59Dx2N9fcTZpyRqWzqD5WkQikUtIAkUZFwBs1PF6vZ/QNG0LgFsQpam7sTWTkJxrzgU4WbPzkT5N/apXs00wefp/w65DpsaPllDYwJZm8/YwZKYlw0WwefTg0fguAADgghk0x/iFEHFZAJh9DFBUV1dnhUKhNMMwaM9yxBi73d5vs9l67Xb78dra2vj/l5GAqqurswcGBn4lpVTu5jccjpxUFF48zbwBhEDJdbOx+ftvQkZi9w24xOQNgEeO9ZkaP5oOH1U7pncuhbkubN/XqRSjPc5nAABg4hgHJuYlYfdh5U2N1TU1Na7a2tpuiryihawAKC8vd7hcriVSygVCCLeUskwIURIKhRwAoGmJPdlgGAYMw0AoFIKu690A9gLYK4TYZRjGOillg2EYTQ0NDfG9fTZOeTyeOaFQ6HkhhHIv++EquXYW+dr/6VLGulBw4VTsf8n8XeQjVTKGZrr1TJLs5n6NoymJql3dGYzLTSMoAOJ7D8B7aspc2L1K7WsBwNHX13cegH8QpBQ1qgWA8Hq950spPwXgUgAZ73W0ilZnqxjlwonjY+VSSgghIISApmlBXdffAvBSJBJZsXbt2tj9tE4gHo/nI0KI3+PE9yWq8s+fgszy/KiMVXDRVPTs6cCxLbE5FT42y5wlkPfkZ5nfmCZaCojuiziTcQQbAduPxf8MAAB4JjrxqHoBACnl+YizAmBEZWZNTY3d6/V+Qtf1bVLKVwHcAIIe6aOAE8DFAH5is9m26Lq+Xtf1e987a83oeb3eu4QQz8KCh392ZSHGXVYWtfGEJjDx1io4C81vtjMSY0wuADwzaHsiWCUzLRnTSsxtmTwuV/1n5GCCFAAFmXaU5pGsUM+lCBJNwy4AdF2/KBgMNkkpHwUwxYScRpMKAD8Ih8PNuq4/4/V6dasTSiQej+fLUsqfwYLNrmmlOZhw01wILbozYTZnEiZ/RkdSZmxduJNk15BJcA3y2SycNQ7ZrmRTx4iGy/SJsJn8c1NEcBKgoycxlgAAYO54kn8vcxBn/QCG/MFYVVWV6fV6nwDwMgATdzSNSjYA10kp/bquv+nxeEw9jz4a6Lr+n0KI71sxdmZ5PqZ+zgstyZo1aUe2E9PuWoiUgtiZCcjLcJq+LOh02HH7ZbNNHcNsWa5k3HyRcsflcyokWAIYCEv0DsTuptPhmF1MUjhmejyeUopA0TKkAsDn88212WwNUsobzU6IYbEQ4i1d1//m8/miN3+cQLxe7ycA3GfF2GMWlWLy7W7TN/2dS3JuKqZ9cSEypo2xNI/35GZGZ33+6oVTsMxjWndEUyXZNdx320JkpJp/YGos0X6Jo72JUQDMKEyGjWaesJIkSpSc86/s8XguMwxjpRAibi88iFNXGYbRqOv6d8rLyxP6CCUln893iZTy14jyVJyWbMf4j85BybWzT1w8HgPsziRMvsODsedNjvpSxOnM3gB4qq/d5MEN502P2ngUslzJ+OnnalA5ZWxUxktx2OEkuJSqK5gYywApSRqKs9V7I2iaNocgnag5awGg6/oNQoi/AaDplsCGKwnAN10u1ztut9ttdTKxzu12TzIM40mc+LpFTeasfMz48hLk+cZHc9ghETYNxVfN55cjDQAAIABJREFUxLQvLICzyLp9unkZ0duToAmBL3xkLn717xdg/vR8aDFSkA0my5WMG5eW4clvXBa1h/97MglmGoiu1I0Jk8eqfz2klKSXh5ntjCWg1+u9Ukr5+7P9HhY15ZqmrfJ6vff6/f4HrE4mFi1btiy5o6PjaQDqN50MUfrUPBRcNBXpU2O/C1/axByU3bMYHQ37cPC1Heg7GN1+JXkWHNGbPSkPP/u383C0px/b9nXiUFcQoRhplJTuTEJhjgvTx2dbVqBkulJwoLNXKUZXgiwBAMDEPAeAHqUYUsq4OtE16MPd7XZXSimj/ibFzsohpfy5x+Op7uvru62xsVHtJzXBdHR0/B+AKrPHsTuTkF1VhFx9PFJLMs0ejpTQBHLdJcipKsbxrYdwJNCCrg0HYrp7IIXMtGS4pxdYnUbMySI4MXE0QZYAAKAwS/1dVwgRVz9oH/obV1dXZ4dCoecARG/Rjg2ZEOJ6p9NZumjRostXrlwZmx1fokzX9WoAnzdzjNTiTIxZMhHZleMs291PRWgCGTPGImPGWIS7B3CkvgWHVu7GQKd57Wf/+OpmXOKeiNwoLgWws6M4lnk0gZYAxmWSvO/GVTOKD+0BCIVCPwVQGv1U2DB4BgYGVrvd7vi4Bs5ENTU1KQAegUln/VPGujD50x6U3bMIue6SuH/4n87uciB/6WSUf30pSq6bDbtJZ/WP9Q7gJ882mBKbjUxWmvoMQKIcAwSAMRl2iv27zsrKyqgtQ6r6wIem1+tdhhM3pLHYN1XTtFqv11tqdSJWCgaDXwZAv+VbCOQvnYKy/1h8opVvDG8koyDsGsZUl6L8G0tN28z4xroW+DftNyU2G75MgiWAYEgSZBIb7BqQ6lB/j3A6nXGzDPD+37ampsYupfyhlcmwYSuRUv7L5/MVWZ2IFXRdzwfwH9Rxk8e6MP3uahRdOSPh3vjPxeZMwviPzsHkT3tgS6XfAvTg8+tgyMR5aMQzij0AfQlUAABAhlO9AIhEIrHRfGMI3v/b9vb23grA/BZUjNokwzBe0XV91N3FIKX8bxD3+E+bmIOyf69G2vi4mcUzRWZ5PqbftRCObNrd+7v2H8VL9XtIY7KRoSgAggm0BADQzABomhY3bw3v/W2FEOIeSzNhKmYCeHL58uVx84OnyufzFQkhPkUZM2t2AaZ+zmvKm288SilIx7QvVsNZSFtbPvpSE88CxABXivp+j2AosQoAh019qU9KGTfrhXYA8Hg8FwGYYdogSQ7YkxL7QzUcCiEcGrAyhUubm5u/B+DLViYRLVLKuwCQ7VjLrizExFurEn6tf7gcWSmYdtcCbP3ZavQdOE4Ss+1IN2rXtWDp3NhrnDSaJNnV33aDA4lVyCXZ1f/9G4YR9cvHRsoOAEKImyiDCqFh+px5qNAXoWTydKSlj47ZaSkleo51ofPwIRxsbcb+5t3YvWUjuo5E7bTevR6P51/19fUvR2tAKyxcuDA9HA5/hipealEmxn+skh/+Z2BzJmHKpz3Y8uOVCPfQFLlPvbGVCwCLOezqE4aJtgeAYmLKZiOYRogSe01NTUowGLyKKuDYcSW48pY7MG7C6DuhJoSAKzMbrsxslEz+/xcmHtrfindXv4H1/rcQ7DG1A5sQQjxaVVVV0dDQcNjMgawUiUQ+CqKOf3aXA5Nunw8bQV/0RObITcXEW6uw4+EASeOgpj1HsH1fJ6YWZxNkx0aCYgZgIJJYBUCI4O8TT0sAWn9/vw6A5BV90ozZuO0/vj0qH/5nM6awCBdd93Hc/b1f4Kpb7kR+8QQzhyu02WwPmjmA1QzD+DhVrIk3z4Mjm3teDUX6tDwUXkJ3E/jLa/eQxWLDl0QwA2AYXACcTggRN18UTUpJcvf8mMIiXP+Zu+FI4U5fZ2JPcmCObzE+85/34apb7oQrw5yd5kKI671e7wWmBLfYggULJgghSH5msyvHIX163JzYiQn5501Gyliagxevrm3mzYAWshPMVBuSZto8VvT0q89uCSGOEKQSFRqAeapBhBC48pY7+OE/RELTMMe3GJ/9r//DLPcCU8aQUj6QiNcIRyKRq0HQ9c+WbEfRVXzqdbiEXUPxNTQXnh0+FsTG3Qm7UhXzHEQ9LhJpEuBYUL0AMAwjblq0a1JK5Z04U2fNRVHpFIp8RhVnmgvX3PZ5XHjtTRCCfONoWXp6+h3UQa0mpbyEIk7++VPIz7iPFhllY090RyRQv+UASRw2fEk2ms+cRHn+D4QlSWvjnJyc0VUAlM/3UeQyavkuuAw3fO5eJKfQPpCklF852Ss/Ifh8PqcQYolqHGHXkLfA1H0YCa/gwqkkcQKbuQCwCtUMQCRBpgAOHgtThDm6YsWKfopA0aCBYAOgyZvaRoWpsypx65e+SV0EFPX29t5OGdBiHgDKX6DsynGwuxJudSSq0kqzkTZBfQ/LluYO9PaTfPCyYaKaAUiUAuDAUZKfw7h5+wcAuxDqh59T09Iochn1CkpKsfyOu/Hkg/+HSJjmQ1EIce/y5ct/+cwzz8T9vZ2RSGQewY8rxizkgpVCjrsEPXu7lGIYUmJHaycqJpmzGVNKia0tndi0twOdx/swEI6NfwZpziQUZKfBXVaAbIKWvCNh02hOqyXKJsB9nSGKMAcpgkQLyeHnnu7jcGXyeV4Kk8pm4cqb78DfHnsIkuZf1oS9e/deAuAFimAWq1INkJyXhrSJORS5jHrZleOw768bIRXfALe20BcAhiGxYs0ePLpiI/Z39JDGpqRpAgtmjsOdV1ZgYkFmVMemenOnKiSstvswSQGwiSJItGgAlI8sHN7fSpAKe89sz0IsuPBysnhCCLKueVYSQlSoxsgo42N/VOwuB5xF6i1EdrSqzSKcrrc/jK8+shL/+0Qgph/+wIlCZdXGVnzy/17GivrdUR07bND08ac4ThgLdh1S73IphNhIkErUaADaVIM0NfgJUmGnqrliOeXeissS5Mpg5S+Ia3IuRR7spHSCryflQzpiSPznI6uweqPyx1pUhcIG7nuiHq827I3amGGCjo4AoMVP35szOt5nYH+X+rKrlHIDQTpRowkhmlWDbN/wDjoOxdXSR8yz2e247GO3gWLNG4BNSknWPc8K1dXV2SDYsJpaHN1p1kSXWqK+EfAgYQHw+CtNWLs1Pk8WSClx/5NrcCBKsxahsHoBoAlAS4A7NDa29pE0pQqHw/FVABiGsVY1SCQSwT/+8GtIoikldkLxpKlkjYKklLeQBLJIKBQqUY0h7Bocudz2l1JyvnpXwINdvQSZAEd7+vGn17aQxLJK30AYj77UFJWxKAqARFn/37iP5OTe/ni7g0WTUgYoAu3dvhl//8PDkJKLAEqLln2EqknQTJ/P56EIZBHlt39HlhMiQT6wYoUjS/3YaihsYIDgYfRWYyuCA/F/pPBf7zSTfD3OhWIJgOA+oZiwdk9QOYaUcj1BKlGl9ff3+wGo/+0BrPevxJ9+8X/oPNxOEY4ByCsYh7LK+SSxDMO4lSSQNZRf3W2pSRR5sFPY05JIiqo+ggf3O9sTYxkyOBDGlmbz28mHCS6+iaObb89oz+EBtB9X//nTNK1WPZvo0hobG3sArKAKuHNTI375nS/j+cd/iW0b3sHRjsOIRGLj7G28qlp0PlWoG5YtW2bNoWNFUkrlAkAj6nzGTiEEydc1SNAMqL2L5D0mJkTj7xIm+Fy2J8CMmn8X2df6VapA0fJeH4BnAFxDFTQcGsB6/0qs96+kChkzkhzJSE1zIS0jE+MmTELJ5OmYPLMCqa5008acOL0cWblj0HVEuclUTkdHxxUAniVIK9qUX99FArytxCSChwDFdHQifXej8XehKLqS7fH9VZcSqN1CsunysN/vX0cRKJrsAJCTk/NcR0fHfgCFFucT80ID/Tg60I+jnUfQtncX1r71Gmx2O2bM9cC95CKUTKa7L/09QtNQoVfjrRefU48lxK2IzwKAsbMaQ7AfIVaMzTJ/s+rxoPq591RHfBcATW39VHcA/AtA3G2A0wDg5OUFD1icS9yKhMPYuOZtPPrDb+Evj/wcxzo7yMeo8C4mORIopbxE13Waq9wYiyFV0xLjx9rpsKNsvPndKo/1qBcAacnxvQvwlaZukjhSyrib/gdOuVe9v7//lyDoCjjaNTX48dC378W2xgbSuDlj8lEyiWR2wS6EuIkiEGOxZNHsIqQmk3Q3t9QFVROQFIXt9ceD6q1vUx3xWwAc6Y6gbgfJEVQppXyFIlC0vf/dW7duXReAr1mYS8IY6O/Dnx/+CVa//HfSuHN8i0niSCnj+TQAY4PKTEvGTRfMsDoNJc5kOz55SXlUxjrWq3723ZUSvxtrX2g8jjDNfQhvrlmzpoUiULR9oHwLBAKPCCHWWJVMIpGGgX/97Sn4//UiWcwZ83TYk0iusa3w+XxzKQIxFktuuWgmfDPjcyuTEAJf/ZgH+dnRaVZ1nGAJwJkUn3sAjvcZeGnDcZJYQojHSQJZ4PT5G0NKeROAY1Ykk4he/csT2PQOzV0JKc5UzJjrJokV5z0BGBuUJgS+e9tCLJlTbHUqw5Jk1/C1Gz24YN74qI1JsQTgSonPJYC/vXsMwRDJ239PSkpK3G6q/tB3LxAIbBdCfNqKZBKRlBL/fOK36D7aSRKvQl9EEkdKeWNVVRV3xmEJx+mw477bFuKbN3tRlKfeqthMmhBYMqcYj39lGS7VJ0Z1bIolAGdS/BUAHT0RvNhIs/kPwF9qa2vJgkXboDtm/H7/016vd6qU8n+inVAi6uvtwQtP/g4fvfMe5ViTZsxCRnaO8kkDIcQYu91+KYDnlZNiLMYIIXCJuxQXz5+Abfs6sWlvBzqO9WEgHBtNyVxOBwpyUuGeXoAslzW9uY71qi8BuJLjbwngj3Vd6AvRnNiTUsbt9D9whgIAAPx+/326rmcC+I8o5pOwtq5vQOuenSgqnawURwgNsz3VJBsMT/YE4AKAJSwhBKaX5GB6ifnH6uLNYYJug1lp8bUJcOuBftRuJbttcUd9fX0tVTArnHX+JhAIfBnAvyMOGxzEorrXXiCJU+lbQhJHSnlZVVVVHkkwxljcMKTEoaPqBUCeK36OXYYjEr98oxMEt/4CAKSU9yPOn43nXMAJBAI/A3ATiC4MGs02v1NP0iQoN78QRaVTCDKCIykp6WMUgRhj8aPjeB9J++XsOJoBeGbtMew9or7scVJLT0/PH6iCWWVIOzgCgcBThmHMApB4zf2jSEoDG+pXkcSa4yXbDMinARgbZQ52qDfAsdsE0uOkE+D2gwP4awPd4TYhxA+amprIqgmrDPm7t2bNml1Op3OpEOIeAPS9bkeJdXVvkcSZ5V4Am51k+q1q/vz5sygCMcbiQ3uXegGQnaqBoDu56Xr6DfzgpUNUTX8AoD0UCv2WKpiVhlW+1dbWhv1+/4/D4fAkKeV94EJg2I4cbEPrnh3KcVJS0zB9znyCjACbzcazAIyNIgc71QuAnDiY/jekxE9fPYJDx0lPf/ykoaGBpIew1UY0f9PQ0HC0vr7+G06ns0gI8XEArwGI++mQaKG6JnkOUU8AAB+vqamJn908jDElhwhmAHLjYAPgn/xHsXYP6fa1lmAwmDAX5ykt4NTW1vb5/f4nAoHAhcFgMEcIcSWA+wH8HcAOcEfBQTWtrUMkrH4F5eTyOXBlZBFkhIJgMHgRRSDGWOyjmAHITo3tGYDXN3fjr++QP4LubmxsJDtHaDWyEu7kF+UfJ//3AdXV1dlU41gpEokIwzDWAShRiRPs6cbWxgbMnKcr5aNpGmZ7FpIcLzy5GZDu4gLGWMxqPazevG5sRuzOAKzdE8RDb3SQHfk76ZVAIPAX0ogWi8p3cNWqVTR9cGOA1+v9g5RS+dbERv9K5QIAOHFDIEUBIIS4srq6OjuRvleMsQ+TUqLlkPpFOIWZsVkAbGztxw9fOgyCU47vk1L2A/gCXcTYEB9nOGKIlPIxAMp15Y6mdeg+1qWcz9hxJSgomaAcB0DKwMDARykCMcZi18GuIIL96kuQ47Ji7yqRprZ+3PfPdvSHaV/9NU37UX19/TbSoDGAC4BhCgQC2wEoX+9nGAY2rnmbICOg0ldDEudka2DGWALbe0B9XVwTQH6MzQAEdvXi28+3o4/mlr/3SSl3hkKh+0iDxgguAEZASvl7ijjr6t6kCIPZnoVUPQG8Pp+vjCIQYyw27T5wVDlGnssOeww9PV5t6sYPXjqMUIT24Q/AkFLelijH/k4XQ9/C+OFwOP4MoE81TntrCw607FHOx5nmwtRZlcpxAMAwDJ4FYCyBNR9UnwEozIqNt/9wROI3b3bioTc6SNf8T3HfmjVraLq3xSAuAEZg1apVnVJK9ev4QNcToEJfTBIHwMeXL18e2+d7GGMjtoeiAIiB6f+Ongi+8dxBvLhBfUPjGax0Op3fMSt4LOACYISEECT3QG9csxqRiHqXqqmz5yLVlU6QEYqbm5uXUgRijMWevQkwA+Df2Yu7nzqArQdM6z93UNO0j9XW1qrvloxh1pdxccrpdL4SDAb3AyhUidNz/Bh2Nq3DtIoqpXxsNhtmuReg/o2XleKc9FVd1ydSBCKk9gUCEDrah8Nv76XIhZ1CEsy9vvZOM7JcyQTZsLMZCEXQ1d2vHKetK4xXmtR7CYzElv39eGOL6b14XjEM4zJdVz+qPRJCCGkYRpcQogtARzgc3mzGPoQ4uMohdum6/gMA96rGKat04/o77lbO50DLHvz6f5VbFDDGGIstBk50120QQrwghFhRV1enfBcPLwEoiEQiJMsA2ze+i2CPejVdUFKKseOUmhQyxhiLPRqAaQA+JqX8o2EYBz0ezwqv17sMCi/yvNlLQVtbW3txcfGVUFwGkIaBzJxcFJVOVs4pFBrArs0blOMwxhiLWZoQYgqAm4qLi5eXlJQc2bdvX9Owg5iQ2KhCtRmwkeo0gKcamsbfVsYYGyVmSimf8ng8tbquVwznD/KTQpFhGE+A4Crk1j070d7aopxPWkYmJs8c1s8AY4yxOCeEWAKgwev1fgVDXBbgJQBFra2tweLi4ioAyh30klOcmDRjtnJOSQ4HmhqUuxUzxhiLLxqAC4qLi8tLS0tfamlpOevLKc8AEKBqDbw+sApSqh+pmj6nCjlj8gkyYowxFoeuC4fDb/h8vpyz/SYuAAj09PS8AOCwapzuo53YtXmjcj5CaPCef6lyHMYYY3GryjCMl89WBHABQKCpqWlASvkkRaz1fpq20/MWnY/C8bHWy4cxxlgUzTcM4+/l5eWOwf4jFwBEqE4DbHl3Dfp61btcaZqGK2/+DGw23ubBGGOj2ML09PQfDfYf+OlApLW1dX9JScl1AMaqxDEMA9lj8kne3l0ZWUhLz8T2De8qx2KMMRa3PMXFxVtbW1s/sMbMBQChoqKiNAAXqcYJ9nZj7oIa9YQAjJswCQCwd/tmkniMMcbi0uKJEyf+trm5+f2r7HkJgNYfACjfHtWycxsOH2gjSOeEJZdfi8tvup2XAxhjbPQaGwqF7j/1F/iJQKi1tbWnuLjYB2CqaixnWhpKp5cTZHVC4fiJKJk0Dbu3bsRAX9+5/wBjjLFEM7ewsPDPbW1tRwAuAMiVlJSEAVynGqfryGHo510MIegubMzOG4uqRRdASom2vTshDfWeA4wxxuKG0DQttbW19e8AFwDkpkyZsjMcDn8eQIpKnP5gL0qnzURW3hiizE6w2e2YVDYL8xdfgLT0DBzr7EBv93HSMRhjjMWs8vHjxz+6b9++43Svl+x9uq7/CsAdqnHm+BbjqlvuJMjo7I4f7UTLzm041LYPvT3HEezphsGzA4wxZgkjEsbxrk50HDpIclX86YQQ9/j9/h9zAWACj8fjE0K8rRrHkZyML33/V3AkJ1OkxRhjLI4YhoEdTetQ//pL2LVFvUvsKeoCgcACXgIwQWtr677i4uIbAeSqxIlEIsgdW4iCkglEmTHGGIsXQgjk5hditl6N9Mxs7N68kWp2tri0tPQ3XACYpKSkJBPAUtU4A31BzPEuJsiIMcZYPBJCYNyEScgvHo+mhgAAqRzSMIw67gNgklAo9AcAyqXanu2bcbRD+Z4hxhhjcW5aRRWqL7mSKtx8LgBM0tDQ0CyEeEM1jjQMNAZWUaTEGGMszi286EqkpWdQhJrLBYCJpJQkFwSt978FKZWnfBhjjMU5R0oKKgiWhYUQRVwAmCgYDP4VgPIh+472A2jdvYMgI8YYY/FuUtks5RhSyjFcAJiosbGxB8BfKGKtq3uTIgxjjLE4lzO2gCQMFwAmE0KQLANsavAjNNBPEYoxxlgc02gudgtzAWAyv9//JoBdqnH6gr3Y1vgOQUaMMcbiWc+xoxRhglwAmE8C+CNFIF4GYIwx1rZnJ0WYXi4AokBK+RgIOjfs2rIRxzo71BNijDEWt3Y0rVeOIaXcyQVAFNTX1+8GsFo1jjQMbFyjfMUAY4yxONXX24OdmxuV4wghtnIBECVUmwHX+3kZgDHGRqtN7wQQCYcpQm3mAiBKpJRPA+hVjXNofyva9irvKWSMMRaHNqxRnkx+z+tcAERJIBA4BuB5iliN/pUUYRhjjMWR7qOdaN6+lSLUgUAgsMFOEYkN2WMAPqYaZMOa1bjw2ptgs8fut+94Vye6j3WhPxiElCTXVyYUW1ISklOcyM7LhyM52ep0hq2/L4iuw+3o7wtSTUfGBAnAmZoGV0YW0rOyrU5n2AzDQNfhdvT19qC/L2h1OjEpOcWJZGcqsvLGwkZznj5qNq6to/o8XQFAxu4TJAEFAoHXdF1vAVCiEifY043tG99FWaWbKDN1x492Ysu6NdjW+C5a9+xAX2+P1SnFjey8sSidNhNllW5MLp8DTYu9iblIOIxtG97B1vUN2LttE452HrE6JdMlpzhRPGkqppRXYtZ8H9IyMq1OaVDtbS3YUL8au7c24WDLHkQiEatTigs2ux1jCosxeWYFyirdKCqdbHVK57Shnmb6X0r5ZwAQJNHYkHk8nvuFEF9RjTOtogo3fPYeipSUHD7QhtUvP4+Na+sS6k3QKq7MbCy48DLMX3wB7EkOq9NBf18Q9W+8jMDrK9DbrXytRdzSNA3l8xdg8aVXIzd/nNXpAAC2b1yHlSuew75d261OJSGMK52M6ouvjKkXq1N1HDqIX/zX3cpxpJSHUlNTx9XW1oa5AIgyj8czTQihvIijaRru/t6Dlr2VhMMh1P7jWQReX8EPfhNk543FpR/7JCbPnGNZDpveCeClp3+P7qOdluUQa2w2G/TzL8V5Vyy3bAnuaMdhvPjk77B94zpLxk90k8pm4dKP3UbVb5/Mmy/8BW/+U/1qGSHEL/x+/xcAIL4WQBJAa2vrkZKSkssAFKnEkVIiIzsXxROnEGU2dF1HDuGJB+7H5ncCkAav75uhr7cHG9e8jXAohInTZkKI6NXqkUgEL/35Mbz23JMY6O+L2rjxQEqJlp3bsH3ju5g8swIpqWlRHX9H03o88cD9ONjaHNVxR5POw+1Y738LeQXjkFeg9DFN6sUnf0cyC6dp2t379u1rAbgAsERRUZEDwKWqcXqOd6Fq0QUEGQ3d4QOteOxH30FH+4GojjtatezciiPt+1FW6Y5KERAODeCZh3/CDafOoftYF5oaApg8oyJqs3CNgZX4yyM/50vBoiASDmPTOwGkpWdi3IRJVqeD/c27seol9UNkQohmv99/73v/P/Z2G40CmqY9KaVU/ld8oGUvDu7bS5HSkHQdbsfjP/kfdB/ritqYDGhaW4d//OFhSKncTfqsDMPAs488wFPLQ9R9tBNPPHA/ug63mz7WlnVr8PzjD8PgGbeokVJixVOPxsQdLFQFuZTyCZzSlp4LAAvU1dV1CCH+SRFrfZR6AoTDITzzm59R3ULFhmm9fyX8r71g6hhv/P1pbGtsMHWMRHP8aCee+tWPTH0rb2/bh+cefYiP01pASokXnngELTu3WZeDYaCpoY4klqZpT37g/5NEZcNG1Rp4Q/2qqBz7eeP5p7G/ebfp47Aze/35P5u29rt3+2a8/SpJTTrqtLe24PXnnzYldiQSwV9/+wBP+1soEongb489hHA4ZMn4zTu2Ul0Ct7murm7Dqb8w6DbW+fPnT7fb7VdLKWcCyMfo2ivQD+AggIBhGH9fs2aNKYvdKSkpK4LB4AEASltNe44fw65NjZg6ey5RZh/W3taCwOsrTIvPhiYSiWDFk4/iE/f+N2lcKQ2seOpR3tCpYE3ty5i7sAZjxym1+Bg0bntbC2lMNnydh9ux+uW/Y8ll10Z9bKrWv1LKD11L/4ECwO12T9I07UcArjZ7vTEO3KZp2gMej+fhSCTyzYaGBtK579ra2rDX631SSql8sHN9YKWpBcCb//wLrz3GiOadW7FzUyMmz6wgi7lxTR3a2/aRxRuNDMPAWy/8Fdd9+otkMcPhEN5+hWdlYkXdqy9AP++SqJ78iEQi2PxuPUksm832oWmq95cAfD7fEk3T1gC4mmS0xOAQQnzBbrfXeTyeidTBw+Hw7yjibF2/FsGebopQH9J15BC2rFtrSmw2MtSzMYE3XiKNN1ptXrcGRzsOk8XbEFjFG25jyEB/H95d/UZUx9y5aT3VZ3tdXV3djtN/UQMAr9c7wzCM5wHkUIyUgGYIIVZUVlZmUQZdu3btRgDrVeNEwmE0NfgJMvqwpgY/bz6KMbs2byDbjHnkYBva9uwkiTXaScMga9UKAI2BVWSxGI2Na2k24w15PKLd/0KIJwf7dQ2AkFL+AUBsNrqOHdOTk5Pvpw4qpSTZDLi+7i2KMB+ydT2//ccawzCwa8uGc//GIdjepFx/slPs3NRIEqe/L4iWnSS3vjFCB1r2UG3IO6fQQD/VqZxIJBJ5ZrD/oHk8nqsAVFGMMgp8asGCBRMoA9rt9icAKG8vbd2zA0cOthFk9P/c2TCSAAAgAElEQVQZhoEDzXtIYzIazTtoHg77LDzelIj27d5Ocipn367tvO8mBkkp0brnQzPpptiybi0G+klOf7x+ps3smhDioxQjjBL2cDh8DWXAt99+u11KSbIIS90T4MjB/ZYdfWFnd/gATbF3aD9v/qMUCYfReeigcpwjB/cTZMPMEK3ma010yw2DTv8DJ5YAdKpRRgNN03zUMal6Aqz3v0W6Xs8bkGLXMaLreI8f5e8xtWNd6lPExwliMHN0R6EZWl9vD3ZuJllO6uvv73/uTP/RDsVz6KONlLKQOmZ3d/c/XC7XYQB5KnGOd3Vi95YmTJoxmySv/mAvRZgeAFsoAiUKIUSylHKWSoz+viBJLgM0cdYBSJRL6KcCyFAJMNCnfoFSP80lTK0A+NKOD8oHUKwSgOhz8aw2vROgumX1xXXr1p2xyrcDCAJwUow0SpB/95uamgZ0XX8awOdUY633v0VWANhsNNed2u3281avXj16L5M/zcl+G0pb76nWhyniJCUlLV21alVC3Bms6/qrAJRu2DIi6h/cBsE+AiHEA36///vKgRKIruvPQrEAsCclEWVzZlTNf3CW6X/gxBLAHqqRRok9ZgTVNI1kGWDzu2vQR1ShEjW8SItEItFvn8UYY6fw+Xw5UsrLVeMkp6RSpHNG3Uc70bydZJPvcU3TznqBiCaE4C4gwyClNKUnbl1dXb0QYqNqnHBogKxzVM6YfJI4UspbSQIxxtgIGYZxgxAiWTVOzlhzV803rHmbZC+XEOKvdXV1Z13j06SUj4HgGNpoIIRoTk1NNbNg+lCv5pFoJDoNkJaRSXXX+RKv11tKEYgxxkboFoog1Pc9nI6q+Y9hGGed/gcALRAIbAfwIMmICU5K+ZXa2lqS3TmDsdlsfwDBZqrmHVvQSXRH+aQypb1q7xFSypspAjHG2HB5PJ5pIDjx5khOQfHkqQQZDa7j0EGSW1ellIdSU1P/da7fpwFAd3f3V6SUbyqPmth+FggEnjJzgNWrV7cBOOc37VyklGgM0MwCTJ9D0yPq5DKAIAnGGGPDIIT4BEWcSTNmwW43bxPghnqa9s+apv25trb2nLtRNeDELnSbzbZMCPEnktETS0QI8Y1AIKB8a99QULYGprjRcdrseSSbAYUQk3VdX6gciDHGhkcD8HGKQLPmL6AIc0ZUzX/O1Pv/dO/fBlhXVxf0+/03AbgIwOsASA4hxrEeAH82DGOO3++/D0BU7ke22WzPAVDuztJ15BCad6gfv7cnOTBjrkc5DsCbARlj0afr+vkAlBfuU1LTMI1oRnQw+5t3k3T4FEI019XVDamS+NBB70Ag8CqAV6urq7MjkciMSCSSP9jvS1SapvUbhtFms9mazrWD0gx1dXVBj8fzrBDidtVYjf6VmDB1hnJOc7yLSK7BFEJcX1VV9cWGhgbzO2kwxtgJJJv/Zs33mTr9T7X5T0r5JwzxhfWMD/aTjT1oMmLDcrI1sHIB0NRQh4uvvxWOZLWTLyWTpyM7byzFxsIMm812Fc7RnIIxxijU1NS4gsHg1RSx5vgWU4QZlDQMNDWY3/v/dNq5fwuLtkAgsAqA8jVtA/392Lp+jXI+QgjM8dL88AsheBmAMRYVwWBwOQCXapzc/EIUlU4hyGhwzTu2Ul0zvDkQCAz5EgEuAGLXExRB1tW9RREGc3yLITSSH5cL3W63uQdpGWMMdPuOKn1LKMKcEVXrXynlsHrJcAEQo2w22+MAlNtB7dm2CUcJbo7LzMnD+CnTleMA0Gw2240UgRhj7EwWLFgwQQixSDWO0DTM8ph3gCkSiZB1b7XZbE8P5/dzARCj3n777b0AlF/fpWGQdQas9NJUwVLK20gCMcbYGUQikVtB8IybVDYLmdm5BBkNbuem9Qj2dFOE8tfV1e0Yzh/gAiCGndwMqGy9n6YnwIx5HuUNhSdNc7vdbopAjDF2BjdRBKnQlScRzopq9/9Qz/6figuAGNbb2/sMAOXSsKP9AFr3DKswHJQjOQUz5il30wQAaJrGmwEZY6bQdb0awDTVOMkpTpRVzifIaHChgX5sa2ygCBWJRCLDmv4HuACIaY2NjT0AniOJRbQMMEcnOwrzsWXLlpFMJzDG2KmoNv/NrPIiyWHex9SWdWsx0N9PEer1NWvWHBjuH+ICIMYZhkGyDLBxzdsIhwaU40yYNgPZeWMJMkJOR0eH8t3cjDF2qpqamhQhxHUUscw8+w/Qtf7FCHurcAEQ49asWfM6AOXrofqCvdi24R3lfIQQmE20I5ZbAzPGqJ1s/JOlGicrbyxKJimvIpxRX28Pdm4e8pH9M5JS9vf3949oppgLgNgnT7Z2VLaeqCdApW8JhFC/2E8IscztdhcQpMQYYwBoz/5TfM6dyaZ3AoiE1a/cEUK8sG7duhHdH8MFQBw4eRpAeRv/zk2NOH60UzkfwsrYrmnaDRSBGGNs4cKF44QQF6rGoZzpPBOq5j9QaK3OBUAcCAQC2wH4VeMYhkF25IRwbYx7AjDGSIRCoZsA2FTjEO51GlT30U40b99KEeq4pmkvjPQPcwEQJ6SUND0B6t6kCEO5O3a2x+OZQxGIMTa6CSFupohDeNppUBvWvA0plRu9AsBzKrfWcgEQJyKRyFMAlK8nbm/bhwMte5TzoTwfyz0BGGOqdF2vAjBbNY4jOQUz5noIMjozqplYTdOUblblAiBONDQ0HAXwd4pY64hmAag6ZEkpb6qqqjLvom3GWMKj2vw3Y54HjpQUilCD6jh0EPublQ92QUp5KDk5+TWVGFwAxBGq1sAb6leT7D4l7JE91mazXUwRiDE2+px8gSDZUGz69H/9KpI4Qoina2trlT7IuQCIIyUlJa8A2K8aJ9jTjR1N65XzEZqG2Xq1chwAEELwMgBjbERsNttlQogxqnEyc/IwYWoZRUpnRNX8ZyS9/0/HBUAceeaZZyIAnqCItd5P0xNgjncx1VnZK6uqqvIoAjHGRhdN026hiDPHuwhCM++xuL95Nw4faFOOI4Ro9vv9yhsJuACIM4ZhPEYRZ/uGd9DbfVw5Tm5+IcZNmEyQERx2u/16ikCMsdHD5/PlGIZxKUWsWW5zz/5Tbf472RxOuTcMFwBxZs2aNU0AlK+PikQiZFNRhD0BeBmAMTYskUjkRiGE8pnk8ZOnI69gHEVKg5KGgaYGa3v/n44LgDhEtRmQ6jTALPcC2JMcFKE8Xq93BkUgxtjoQLV/yOyLf5p3bMWxzg6KUJsDgYD6JQLgAiAuGYbxJyml8h2S+5t3o72tRTmfFGcqps2epxwHAKSUJGt5jLHEp+v6TADKDUnsSQ7Tz/5Ttf4VQpDsAwO4AIhL9fX1R4QQKyhiNQZWUoShrJ5vXr58uXIrT8ZY4qN6+58x142U1DSKUIOKRCLY/G49SSwhxJ9JAgGwqwaoqqpKcjqdLopkEsWxY8cGGhsbe8wcQ0r5uPh/7N15dFvXdS/+77kASIKDKFKUxFmUqHmWKAGkBpue7XiI7Vh27NiJ60xthiZN2/S1r69pV5r+XtImaTqkfZltx44TOXYS2/Hs0LYk4IKCTVKi5oEiCZEU5wkz7vn9Idn1LEpnAxe42J+18kfXcr93iySAjXvP2UeIm1Vz2r2v4vIPfxSa4srX+pVrUVRcQnHYUNWpU6du3LZtG83ziTSUSCSKDYNkDGhaiEajs7dto9kOarZoNOpI5glwKebctm1bidlFJEsikRCGYXyMImst0Xbm93P8QDtC01MUUV6Px3OMIgi4yAbA5XJdLoS4F8AVACpisZhlXjEUnE4n3G73lJTSr2naY7FY7Ed+vz9IeY1EIvGUzWYbVN37Oj0xjhMH92HxKrVx/JqmYbVrKzzPP6mUAwBCiMdjsZhyjpU5aNZcwGa3Kw+FEkKcsMrvi+LD356j/rux29UHY0opvxaLxb6mHGRxRbNLsGiF8gThD0S1+p9i7/9bXdDXvu3bt891uVxPCyFeBHAPgEoA/OH/3gqFEJdKKb9nt9uPulyu6ynD/X5/jOqPgeqAoHWNyV1Ew/5HTp6TJCeXKIf9D4qfKdXvl53fGtc2CJG8p+GxaARHOpQ3bgGAYbPZHqUIesOM/9UNDQ210WjUJ4S4lrKALFEphPhtY2PjpylDqXYDHG73IxxUf2Ixr7IaFbULCSpi51NSpjz07FxO8o48zVYlZfMJMmh+v+z81id59f+htr2IRpTXbAPAi7t371afIvQWM2oAmpub8+x2+28B1FFePMvYpJTfb2pqupQq0Ov1vgZAeTtIPB5Dp99LUFHyt9Kws+ZV1dDkVNLksLPy8gtQNFv9sTvV75d9sMq6epSVVyX1GlTzVkC09/+tZtQABIPBLwJYT33xLGQ3DOO/m5ublRdfvsWDFCFUo4HXbN4Km53yn8fey4IlK0lyapfw2AVKdUtXkKwjqKhdxI9nUmA93fex9xQOTuP4QfUt+1LKSCQSeZygpLeZSQOgCSG+TH3hLLY8HA5fR5j3IADlo/16TxzF8ID63SVnQSGWrN6gnMPeX26eEwuX0TQAS9ds4IaN0LK1ylvSAZxdVLt4NX/nSiab3Y5VDY1JvcaB13SSk1c1Tft9W1vbGEFJb88933/Q1NS0CWcX+zEiUsobqbJ0XR8A8BxFVruX5phK92W8TCSZVm1qopq8CGdBIdkQp2yXk5tHOkwm2c+ms91a1zY4C5K7g51q+I9hGOS3/4EZNACJRILvEdKj+fp2DtViwA79FUipvj99wdIVqKwjOSCIvYMQGhqvIDn35E1brybrR7PapkuvQk5eHlle/cp1KK+pI8tj/0MIgcYrSTdmvcvU+Ci6jx6miJq02Wzq+6vfw3kbACGEZQdJmKiUMiwvL+93AJQn8EyMjuDk4QMEFQHNN9xGksPebsPWZvIDSyrr6rF8/WbSzGzjLChMSiN1xc13kGeys6f+za1I7uK/fa17SL5QAXjc4/GEKILeaSZrAIaSceEsN0gZ1tLSEqYaD9nhpRkNvHjVOqx1byfJYmcVFZfgips/mpTsa27/eFJHoVrd1R+5Oym3k+tXrsOqTU3kudmsYFYxrtlxT9KvQzX8R9O0pNz+B2bQAGia1pmsi2ex/dSBUkqSxwCH2loRDYcponDNjnt4nzkRTdNwyx99PmnPLItL5uCmez5DsoI926x1b0/q9tfr7/okSueqzxZgZx+h3Xj3p5FfWJTU64wMDqCv+6RyjpRyMDc39wWCkt7TeRsAj8fTBqArWQVkqd9SB+q67gVwSDUnGgmTHVrhLCjE3V/6GxTOmk2Sl62EELj+rk+ijmjl//tZvn4zrrj5zqRew2oWLFmBG+7+VFKvkefMx8f+9K9RMKs4qdfJBtfsuCcli173+WgWVAshftXS0qK+jeB9zOQRgBRCfCtZBWQbIUSrruvPJyNbSkkyE6DNS3cOT0nZPHzsi3+F4pI5ZJnZRNM03PCxT2HD1stScr0tV9+Aa3Z8HELxcKhssHDZKnz0c39BMrf/fErK5uGeL/1vzCohXT6UNYTQcPVtd8N12TUpuR7V8B/q2f/vNKNjV+fPn9+uadrlAGqTWUwWCEspbwsEAqTjHN9QW1t7Qkr5JSge8zwxMoy17u1wEj0TLpw1G6s3b0HPiSOYGB0hycwGBbOKccdnv4IVG90pvW71wsWYX1WD4wf3IW6RQ34oCSHQeMWH8OFP/AkcBAf/zFRB0Sys3tSE06dOYnyEl2bNVJ4zH7d/9s9Stiapr/skdj2jfpNXCNHt9Xr/nKCk9zWjBqCvr89YsGDBk1LKDwHgh7oXQUoZAfBxn8+XtOc5vb29k9XV1dsBLFLNyi8oxIKldDtAc3LzsK7pUhQUzULvyaP8wfIBhBBY13QJbv/sV0wbCVtWXoXVrq0YHx7CUH9S+tWMNGd+JW795Bex6ZIrlY/Qvhg5ec6zzXlBIQInjyIe59fR+xFCYI1rK+744z9HRW1dyq7rfeH36D1xlCLqvwKBQNI+L4AZNgAA0NPTM11XV/egYRjVANaCTwG8EIdsNttHdF1/NtkXqq6ulgBuVc0ZGxmC67JrSBeFCSFQVVePDVsvQ06eE6NDZxAJkZ6SnNHsjhys2tSIW+77PBq2XYGc3FxT68lz5mPVpiYsWb0eoeA0RocGIA2SbU0Zp6J2Ia685c60WJAnhED1wsXYuO1yOHJyMHKmn2zhrhXY7Q6s2rQFN979abguuyalI5WlYeCJh36ISJhk197nA4HAAEXQ+7mod/empqYNUsp7pJRX4uxjAV6d8nZRIUS/lHKvEOKxvLy8XyZzIcdbNTQ05Nvt9n4Aystc7/2Lr6G2fhlBVe9NSgPdRw/j1NGD6DlxBOMjQ5ienEBoeipp10wXdkcOcp1OlJTNQ3n1AtQtW4n6levSev57aHoKxzrb0HXkIM4EejA2fAaRUMhS30KFpiE3z4lZs0swZ34lahYvw+KVa5N+YIyKN15HJw7tw+lTJzE8cBqh6SmqD6G05sjJRX5hEQpmFaNqQT1q6peifuXapE/4ez+njhzE/d/9OkXUQV3Xk7vqF/wt3pLcbvdPAPyRas6GrZfhxrtJTzBmjDHLevKhH+G1XS8p5wgh/tbr9X6DoKQPxEt9LUjTNJKZAAf8XsSiJOdYM8aYpSUSCbIt1FLKX5EEnQc3ABbk8XhekVIeV82JhEM41LaXoiTGGLO04wfaqR5f6rquk6wiPB9uAKxJapr2c4qgDp1mNDBjjFkZ1ehfAEnd+/9W3ABY188ASNWQE4f2Y3x0WL0axhizqFg0giMdfooow26376QImgluACzK6/V2AVCeRykNA/t9NGdaM8aYFR1q24tohGS91Eu7d+9O2eANbgAsjOqAoDYP3WhgxhizGqrRv0jh7X+AGwBLE0LsBKA8aWd4oA+nu5TXFDLGmOWEg9M4frCDIiqqadpvKIJmihsAC9N1fUJK+ThFVpv3FYoYxhizlAOv6UjE1ee8CSGe8ng8KT0shRsAixNCkDwG6NzrIfkjZ4wxK9nXSrNGyjCMlN7+B7gBsDxd118E0KOaE5qewmGaVa6MMWYJU+Oj6D56mCJqMpFIPEURdCG4AbA+A8BDFEEdXp4JwBhjb9jXugdSkhyQ9bjf70/5yWjcAGQBKeVPQTAT4FhnG6YmxggqYoyxzEc1/EfTtJTf/ge4AcgKPp/vCADlIdWGYVBOu2KMsYw1MjiAvu6TyjlSysFoNPoiQUkXjBuALEG1GJBnAjDGGLDPpzxnDcDZ7dp+v9+UM7W5AcgSdrv9ESml8qiqM4Ee9Pd0EVTEGGOZK1OH/7wVNwBZYteuXaNCiCcostp5MSBjLIv1dZ/EUD/JxN4eXddNm7VuN+vCLPWklPcLIW5TzdnfuhtX3noXbDYbRVlkzpzuxfHONvT1dGGo/zTCwWmEQylfWDsjDkcOcp1OzJ4zF/OqarFw2SrULV0Jmz19X5LRSBhdRw6g6/ABDPb1Ymx4EJFQCPG4KXcvk0IIgTxnPgpmFWNuRTWqFy1B/Yq1mFVSanZpH6i/pwsnD+1HoOsERgb7EZqeQiQcMrusi5KXXwBnfgHKyqtQUVuHJavXY878SrPLehuqtVBSyodBsED7YgmzLsxSr7m52R4KhXoAlKtmffRzf4GlazYSVKUmGgmj3fsKWlueo+rITZOXX4A1m7ei6coPYXbZPLPLedNQfwCe559Cp9+LaCRsdjkpJzQNdUtWwH35tViyZiOESI+3zWgkjNd2/wH+V17E8EBm/+2fz7zKarguuxZr3dtgd+SYWos0DHzvb/8UE6PqQ/uklOt9Pl87QVkXJT3+klnKuFyubwshvqKas2KDCzs+82WKki6KlBL7fLvwwmO/sNzWRE3TsOnSq9B84w7kOfNNqyM4NYnnH3sIHfouSINkr3PGq6hdiOvvvA+VdfWm1SClRLv3Fbz4+C8wPTlhWh1mKC6Zg6s+8jGsbGg0rYZTRw7i/u9+nSLqkK7rKyiCLlZ63cNlSVdRUXFa07TPqeaMDg1g0yVXwpGTS1HWBQkHp/Hoj76HPc89YclvpFJKBLqOY3/rHlQvXIxZJXNSXsOJg/vw4Pe+gZ7jRwBp2h3KtDM1PobX97wMQGLBkuUpvxsQnJrEr3/0PXiefwqxKMnxsxklEg7hwGs6BvsCWLxqnSmPzHY981uS7X9CiO/19vaaesgKNwBZ5vTp02eqq6tvhuJjAGkYKJ5ThqoUfxMaGx7ET//l7xHIgtMJI6EgOny7UFZegbkV1Sm7brvnFfz6R/9myeaKhsSpIwcx0HsKy9dtgpaitTCjQ2fwwHe+nhV/++cz2NeLwx17sWL9ZuTkOVN23UQigSce/AHisShF3B8HAoGUHv7zTtwAZKHq6mongGtVc0JTk9i47XKCimZmbHgQ93/n6xgbHkzZNc0mDQMH21pRVl6JeZXJbwL2vvICnnzoh5D8rf+8hgf60N/ThZUNjdC05G6oGh8Zws++/Q8YGx5K6nUySXBqEoc7XsOKjS7kpqgJONbZhrY9LRRRuq7r36IIUsHbALNQTk7OQwCUl24Huo7jTED5nKEZiUUj+OV/fwfjI9n3BigNA7/52ffRe+JoUq9zrLMdTz/ys6Rew2qO7m/DM7/8WVKvEY2E8fB/fJNk0ZnVjJzpx84f/GvKTiolnIRq2t7/t+IGIAu9+uqrgwCepsjqIJqGdT7P7nwQA72nUnKtdJSIx/HrH/970rY1To6P4jc/+z7VwSZZxf/qi+j0e5OW/8wv78dgXyBp+Zmu98RRvPB48j9PY9EIjtCciGrY7fadFEGq3ncFhcvlWghglRBi3gf9d+ziCCHGpJTdTqdzb0tLS2ra17df/34p5U2qOR36Llxx8x0QInm9ZPfxw3h99x+Slp8pxkeG0PLETlx7+yfIs5//9UMITk2S52aLZ351P+pXrEFefgFpbvexQ2j3mrpOLCP4Wp7F6s1NqKpbnLRrHGrbi2iEZOHlS7t3706LfZvv/GAXLpfro0KIvwKwzoyCssUbz1hDodBwY2PjA7FY7J/8fn/K7m9PTk4+WVhYOASgTCVnanwUJw7uQ/3K5P25PPfoz/mZ9Dl7X34ejZdfRzonYKD3FOVY06w0PTEO74u/R/ONO0hzX3j8F/y3PwPSMPDSb3+Fe770N0m7hhVG/77Tm1/b1q9fP9vtdj8thHgY/OGfSnOklH9mt9sPNjY2Nqfqop2dnVEAv6TISuZo4FNHD+I0r3p+k2EY8Lzwe9LMXc/+jj9kCPhaniPdOdF1+EDS131YyclD+5N2Tkk4OI3jBzsooqKapv2GIoiCBgANDQ35ubm5zwO4xuR6slmZlPLZVDYBhmGQnBB46PVWhIPTFFHvQrTi1lL2te4mW/QUDgVxuJ3kuWbWCwenSX+Wr+9pIcvKFsn6mR14Tad6zf3e4/GkzWpODQBsNtv3AGwyuRYG5Egpd7pcrpRMfmltbW0FsE81Jx6P4cBrOkFFb5dIJHBk3+vkuZkuHJxG15FOkqyj+16n2tPMABxqayXJkdLA0X2vkWRlk4Ovtyblbta+VprzeoQQaXP7HwC0TZs2rRZC/JHZhbA3lQkh/jpVF5NS/pwiJxkLlc4EuhGaniLPtYKuIwdJck4dpclhZ3UdOUDyAdTX3ZW2B1mls6nxUYwOnSHP7D56mCJqMhaLPUkRREWz2Wz3ggcCpZt7m5ubU7LzwuFw/BxAQjWn5/gR8sN4kvU8zwrOnKaZvzDQ202Sw84KTU9hmuBsCqrfbzaiGNP7Vvta91Btj/2N3+9Pq65OA3CV2UWwd5kTiURSctTeue0oL1Bk7Se6TfaGbBz6M1OjgzTfcsaGab8tMWCE4Bvo6OAAQSXZaYL4fYNq+E+63f4HzjYAC8wugr1bIpFI2e9FSkmyGLDd+yrpqXHhYFo1y2mF6vYw32amR7EgNhIOEVSSnYKEjw1HBgeo7igMxWIxki9alOwAHGYXwd5N07SUHXqdn5//eCgUGgMwWyVnfGQIp44eQt2ylSR1GQS33aSUv5JSpmxNxUzY7fYawzBaVDKoFu5RrGzWNG1jPB4fJyjHdJqmPQBgq0pGPKr+u4nHlCd1QwjxrUQi8f+Ug1JI07T/AHCdSgblCY376Cad/srv96v/UonZAZwGkLzxSexipWz2Z0tLS9jtdu8E8GnVrHb9FbIGgOKADyHElXPmzPn4008/nTZnp27evDnph8ekks1m6/J4PKNm10HB7XZb6av3SGtr6wmzi5iptWvXFjidzktUcyiPKLfi8J+30oQQtA9umTIpZcRms6V0c7YQguQxwMHXfFTjMlE0u4QipnR4eFh55DFjLLny8vI+DEB5lnJxKc0u6r7uk1QLm3t0XSc7RYiSJoR4xOwi2NsJIZ7YvXt3Sgeze73e3QCU97pEI2EcfN1HUBEwv6qWJEfTtI+TBDHGkumjFCFl5VUUMWSL/6SUDwNIy1O2NI/H8wyA1BzpxmYiDuBrJl37IYqQDqKZABW1i2Czq++GlFJeu3nz5nKCkhhjSbBt27YSIYTyJNrcPCfmV6uvn5aGgU6/tW//A+cmAQoh7pFSDppdDAMA/KWu6wfMuLDNZnsABJ1q15EDGCPYCpWTm4uFy1Yp5wCw22y2uyiCGGP0YrHYDgDKC58XLl8Nm019rE33scOYGCWZ2HvI5/O1UwQlgwYAXq+3SwhxHVK48Iy9iwTwd7qu/6tZBezZs+cUgJdVc6SU2Ed0+2xlQyNJjpTyXpIgxhg5KSVJg75yo5sihnL0L8ld1WR5cymyrut+AA1Syh+BYDIcuyBthmFcpev6180uhGwmgOdlkpGoKzc2IieXZFXvmqampg0UQYwxOlu3bq0UQmxTzXHk5GLp2gblehKJBNk6JiklyYmryfK2B6y6rg8A+LTb7f5bKeUNQojVAMqFEDwqmJiUckxK2QXgOZ/P58fZOwCmC0/P4OwAACAASURBVIfDjzqdzv8AUKiSMzI4gMDJY6hetESpnpzcXCxbt5lkP65hGJ8AwKcLMZZG4vH4nSAYR798/SaSLwvHD7RTnUGi67qe1uc5v+cKq3ONwI9TXAtLAx0dHdONjY2/llJ+QjWrzfOycgMAAOubLqEayHH3qlWrvtrZ2cnH3zGWPu6kCFm1qYkihmz1P9J48d8brDONhJGhegxwwO9FLKo+E6Bu6UoUl5YRVIQ5hYWFSlPGGGN0mpqaFgNQvm+fl1+A+hVrleuJRSM40kEygsXQNO1RiqBk4gaAvYuu6y0AlAdgh0NBHOlQP9NcaBrWuJQfEZ7NEkL5zgZjjIaU8m6KnFUNjSRbhg+17SUZZCaE+IPH40n7RfXcALD3IkE0E6DNo7ypAMDZxwAUM76llDds3759LkFJjDFFUkqS4T+rN2+hiCEb/WsYRtrf/ge4AWDvQ9O0+0GwMPHEof0k+2lL55WjaiHJkRWOWCxG8syRMXbx3G53A4BlqjmFxSWoXawcg3BwGscPdijnAIjabLbHKYKSjRsA9p48Hs8xAMqrYaRhkC2qWdeofE4IAIBigSNjTBlJI77GtRVCqH+Udfq9JKdjAvi9x+MhmSKUbNwAsPdFdUBQu5fmMcCqTU2wO0hOSd7odrvVVwwxxi6WBuAOiqA1RLf/qb6oCCEy4vY/wA0A+wDnhlgEVXMG+wI4fUr9VNI8Zz6Wrd2onHMOHxDEmEkaGxsvAVCtmlM6dz7Ka+qU65kaH0X3MeWz0ABgOhgMPkURlArcALD3pev6BIDfUWR1eF+liMG6pktJcgDc3dzcrL5smDF2waSURLf/aXYH7WvdAylJDux7rKOjY5oiKBW4AWAf6NxiQGX7WneTPF+rX7EGs0pKCSrC/GAwqHz6GGPswjQ0NDgAfIQiK92G/2TS7X+AGwB2Hh6P5zkAvao5oekpHN2vPoVXaBrZlh9N03gxIGMp5nA4rgUwRzWncsEilJVXKtczMjiAvm7lsScAMBSLxV6gCEoVbgDY+RhCiIcpgto8r1DEYF0jzWMAKeWHXS6X8hsRY2zmqG7/U30RIBozDinlTr/fHyMJSxFuANh5UY0GPrb/dUxPjCvnzK2oQuWCRQQVIUfTtNspghhj59fQ0JAP4EbVHKFpWLmR5qhwquE/yIDZ/+/EDQA7L13XDwDYq5pjGAb2E73Y1jZuJ8nhmQCMpY7NZrsZiieNAsCCJctJ1gL1dZ/EUP9p5RwAPT6fbzdFUCpxA8BmhOouANVMgDWbt5LM/gbgbmxsXEERxBj7YJqm0dz+35SWe/9JthGkEjcAbEZsNtvDUkrlUzL6e05hoPeUcj3OgkIsWb1BOQcApJQ8E4CxJNu2bVuJlPJq1RybzYYVG1zK9UjDQKef5o5kIpHIuNv/ADcAbIY8Hs+IEIJkwEU70UyA9U00o4EB3LNjxw4bVRhj7N1isdgOAMqjPOtXroOzQPkpArqPHSY5pwTAodbW1jaKoFTjBoDNGNVo4H2+XUgkEso5i1dvQOGs2QQVoaq7u/sKiiDG2PtKr9X/rWSP7El2SZmBGwA2Y3l5eb8HMKCaMz05gRMH1E/d0jSNbBCIEIIXAzKWJFu3bq0EoLxyNyc3D0vXNijXk0gkcPB1n3LOOY9QBaUaNwBsxlpaWuIg+mNv14lGA9PtBrh1/fr1JLcTGGNvF4/H7wSg/Jht2boG5OTmKtdz/EA7QtNTyjkAfLquH6UIMgM3AOyCUI0GPty+l+QFWF5Th/nVCwgqQl5eXt5tFEGMsXchuf2fbqN/kYF7/9+KGwB2QTwez+sA2lVzEvE4Ov1egopI7wLwYwDGiDU1NS0GoHzf3llQiPoV6qd4x6IRHOnwK+cAMDRN20kRZBZuANgFE0I8QJHTTjQaeI1rG2w2kkX82zZt2rSMIogxdpaU8m6KnJUb3SSzPw617UU0oryjGUKIP3g8noBykIm4AWAXTNO0nwNQnnkd6DqG4QH1KVwFRbNQv3Kdcg4A2Gy2j5EEMcYAAFLKj1LkUK3+pxr9axhGRt/+B7gBYBdhz549ZwA8R5FFNRNgHd1MgI+DXxeMkXC73Q0AlO+qFRaXoLZe/eZcODiN4wfVdyABiNpstscpgsz0nvdTNm3atMxut98spVwJYD4IVm+mkSEAXQCe0nV9D1I0vnHbtm0lsVjsBgBbpZSVQginaqYQYlJK2S2lfCE/P/+FlpaWMEGpMyKlvF8Icb1qTrv3FVx20w4IofaZu3TNRjgLCikWFi5wu90vA0jmz1L5d69pND2KEBqkVHsJRKPRx91ud0adgvYBNqoGaASPoyh+v1LKT7nd7iuVg9RUU4Ss2bwFguBn0un3IhGPE1SE33s8HpIpQmZ6WwOwefPmRZqmfRvAzVJKk0pKmf/ldrvbpZRf8fl8LyXrItddd13uyMjI38Risa/g3CEYQgiS7Dd+R0KIL4VCoYDb7f4/uq7/lCT8PKanp39bWFg4DMVzvSfHRnHyUCcWrVijVI/NbsfqTVvQ+jLJjYltFCHJlJun3EOcy8lDOBRUyhBC0JzPbBE5BL+bnLw8gkqw+Nz/Mt4a11aSHOLZ/xnvzZaqqanpUk3TWgHcbGI9qbZOCPFcY2PjV5IR3tDQUDYyMvIigL8DwQlY51EF4Cdut/unzc3NJKfkfJDOzs6olPJXFFntXprFgFQnBGaCouISkpwCmkmK7C1mzVb/3RBNuLSEsvJKlNfUKedMjY+i+9hh9YKA6WAwSDIW3WwaADQ2Nq4wDOO3ANTPV8w8NinltxsbGz9FGdrQ0OCw2+07AdC0rjN3bygU+nYqLkQ1E+Dg663K30IBoKquHnMrqggqSn9zyitJcrLl55UqNpsNJWXzlXPmVpDcObcEqr3/+1r3KD/uOufxjo6OaYogs2kAhJTyQQDFZhdjJinlv7ndbrJXncPh+CqAZqq8C/SnjY2NSX/25/V6dQCHVHPisSjZWM61jWSLAdMaxYIoAKhZtIQkh51VsWARyVa1qrp65XUxVpFuR/8iw4f/vJXmcrk+DIIhDRbglFJ+lSJo7dq1BVLKv6TIuliGYfxDii5FMhOgg2o3gHub5d84haahfqXamok31K9aT5LDzlpM9PPMyy9A1cJ6kqxMVlG7EHPmVyjnjAwOoK/7JEFFGIrH489TBKUDTQhxh9lFpAshxO0g2AKWn59/DUy+oyKEaNq8eXNNsq+jadoDAJSP9us+dgijQ2eU6yksLsGydcoLudPawqUrUUi0BmBeZTXKa0hGKWc9IQTZYjUAWOvOnjUt72fTJTQ3Mvf5dpHkSCl3+v1+q+x4gQbAbXYRaWS+y+WieDdMh5+p0DQt6XWcm4SlvItCSokOogOCmq68gSQnXbkuv5Y0z33ZdaR52WrJmo0oKZtHlrfWvQ35hUVkeZkmv7CIrKGiGv4DC93+B842AOVmF5FONE1TXl0lpVS/Z0VACEGzUuz81yFZDNjueQUU209r6pdiwZIVBBWln8q6eixZvYE0c7VrK8lt1mwmNA2XXn8raWZObh6arlQetZGxmq66AXZHjnJOX/dJDPWrTxwF0OPz+XZTBKULDUDI7CLSSSKRoFjdqb6knYBhGClZqSqEeAzAuGrO2PAguo8prykEANzwsU/CbneQZKULITRcd8e9ZHMk3mCz2ZKSm00atl2OitqF5LmNV3wIZUQ7PjLJ/OoFaLziQyRZxHv/UzI4LlU0nJ2Kx84y7HZ7N0HOKYIMZVLKrlRcx+PxhIQQj1JkUS0GnDO/EpfdtIMkK11cesNHUFWXnIVhi1aswebmq5OSbXWl88px5S13JSXbZrfj1vu+QLKzIFPY7Q7cdM9nSA74koaBTj/N7f9EImGp2//A2UWAz5hdRBrRKcY7apqWDj/TqYKCgpTdrjIMg+QxQKffQ3JSFwA0Xnk9Nmy9jCTLbCs2uLD92g8n9RpX3foxLFy+OqnXsBpnQSHu/NxfUE3ue0/lNXW48e5PZ8UdGqFpuPmPPkd2N6X72GFMjJJM7D3U2traRhGUTjQp5c9AcLKbRfyQIsTj8bQBoNnYfvHuT+XZAD6fb5eU8rhqTjQSweH2VoqSIITA9Xd9Eis2uEjyzLJkzQbcct/nSWahfxCb3Y47PvsVy66foOYsKMRdX/grzJmf/Fv0a93bzz6mSfLfgJneeMS1ciPd2uV9rWTfgR6mCkontkAgMFJdXV0KoNHsYkzmr62t/eKBAwdIDkGoqqo6LIQw62S5IZvNdkdPT09Kp1VVVVWVCCGaVXMi4RDWEY31FUJg5QYXpDTQc5xkDGhKbbr0Ktz8iT+BzZaaW8A2ux2rN2/B2PAgzgR6UnLNTDRnfiXu+dJfY3516rZQVtbVY255JY51tiORIDnQJm3k5Obh9s98mXQbZSKRwBMP/gDxWJQi7rOBQCDjD/95JxsAzJ49+w8Oh+MSIUSdueWYZsBms1317LPPjlIFBgKB7qqqqkkhxDVUmTMUBfBhr9fbmeLroqam5hSALwFQulc5PjKE9U2XIM+ZT1KXEAILl61CRe1C9J48hnAw/ad4FhWX4KaPfxZbrroh5bd+Nc2GFRtcmFU6Bz3HD1O9gVqC0DRs2n4Fdnzmy2TnMVyIuZXVWL5+MwZ6T2F8dDjl10+GhctX46N/8ueoJp5KeayzDW17WiiifLquf5MiKN3YAGBwcDBRW1v7SwALAdCMGMsc7VLKq7xebxd1cCAQ8FZXV/cAuAbvc/QysX4AN+i6TnO6zgXq7e0dq66uvhyA2tciKZFfWIQFS5bTFHbOnPkVaNh+ORw5ORjqP41oJGVPSGYsL78AW66+Ebfe9wVUEByAoqKipg4btjRDAjgTOIVEQnneU8YSQmDpmo249b7PY+O2y01dlJdfWIR1TZdibnkVhs/0YXpywrRaVFTULsS1t38CV95yZ1LmHbz81K9x5jTJXax/CQQCXoqgdPOurxZut/sqAP8LwCVIzYeWKYQQ+wF8PxaL/SjZk522bNmywDCM/yOlvBVAMr429AC4H8A/67pu6ruB2+2+D8CPVXNK55Xj83//7aR9+00kEjjcvheH2/ei+9hhjI8MJeU6M5FfWIS6pSuxbN0mLF+/CY6cXNNqeT+RcAgHX/fhUNtedB87lBF3UVRpmobKunosXrUea1xbSYf8UJFSouf4Yezf60HX4U6q/e5JIYSG+dW1qF28DGtd21CZpB0tABCLRvDtr/4xxYJiQ9O02nMDzyznfd9dt23bVpJIJFYkEon5sFAjYLPZzkSj0ZN+v59iu98FaWhocGiatkoIUQ1A+dBwIcS4pmndHo/nMACStQuqmpubC0OhUB8Ijj++76v/gOqFqTmsZmpiDJNjowhOTSJCcDLh+dhzcpCb58SceeVkY31TRUqJidFhjA0PIhIOIR61ziMCoWnIc+ajaHYJSsrmZ9z2u0g4hOGBPoSmp1Lyd3xeQqCgcBacBYWYVTqH7LHe+ezz7cbjP/1PiqiXdF2/giIoHVl/XwlLObfb/SCAu1VzNl1yJT50530EFTHGsskj3/8XHNn3mnKOEOLTXq/3RwQlpSXr7ilhpqEaDby/dQ8vQGOMXZBwcBrHD3ZQREXPTTm1LG4AGDmv1/sSzq5LUBIOBUm6eMZY9uj0e5GIk2yTfJpiMFw64waAJYMhhHiQIqjdY8qGBsZYhiKe/W9p3ACwpDg3YVJ5YeLxAx2YHCcbz8AYs7Cp8VF0HyMZ+DUdDAafpAhKZ9wAsKTQdf0oAF01xzAMso6eMWZt+1r3QEqSA/se7+josPxeV24AWNJIKUkWA7Z7XqaIYYxZHOGXBcvf/ge4AWBJdO74zJBqzpnTvejv6VIviDFmWSODA+jrPkkSNTU19QJFULrjBoAljd/vH5dSPkGR1cZ3ARhjH2CfbxdJjpTyl52dnVmx/5gbAJZUVDMB9vl2U23tYYxZUOdeD1VUVtz+B7gBYEnmdDqfA9CnmhOansLR/W0EFTHGrOb0qRNU5yD0+Hy+3RRBmYAbAJZULS0tcQAPUWR1mHPIIWMszbW+/BxV1C8BkGwjyATcALCkMwzjZxQ5R/e9juDUJEUUY8wi+nu6sJ/oS7umaQ+TBGUIbgBY0rW2tnYCUJ7pm0gkKJ/zMcYyXHBqEo/+6N+QSCQo4g55PJ7XKYIyBTcALCWoFgPybgDGGAAM9Z/Gz779Dxg500+SJ6V8hCQog2TWYdcsYzkcjl9Eo9F/BpCjktPXfRJnAj2YV1VDVBljLJOMjw5jb8tz0F96BvF4jCxXCJFVt/8BQJhdAMsebrf7cQA3q+Y0XXUDrrr1LoKKaEnDwJm+Xgz0nsLI4AAioRBi0YjZZTFmCeHgNIb6AxjsC0BK5WNG3knXdb2ROjTd8R0AljJSyvuFEMoNwH7fblxx80ehaenxBOv0qRPwv/oijux7DdMT42aXwxi7cD8wuwAzcAPAUmZ6evr3hYWFQwDKVHImx0dx/EAHlqxeT1TZxenv6cJzv/45ug4fMLUOxpiSM/F4POue/wOAzewCWPYYHBxMVFVV1Qgh3KpZRiKBlQ3KMRclEY/jhccexu8e/AHGhs6YUgNjjIYQ4uutra0tZtdhhvS4h8qyBtVugCMdfoSDqT+tc3piHPd/9+vwvvh7qmNHGWMmEUJ0x2Kxfze7DrNwA8BSStd1vxBiv2pOPB5Dp99LUdKMTU2M4f7v/iN6TxxN6XUZY8khpfyK3+8Pml2HWbgBYCknpSS5C9DuTd1o4Hgsiof/41sY6g+k7JqMsaT6ha7rvza7CDNxA8BSLh6PPwRA+Wi/3hNHMTygfM7QjDz1i5+gv6crJddijCWXlPK4w+H4vNl1mC0luwCam5sL4/G4IxXXyhQVFRUTO3fuJJlfmWn8fn+f2+1+HsB1qlkd+qu47KbbCap6f8c629Hu4YOIGLOIcSHETbt27Ro1uxCzJaUBaGhoKLbZbJ8RQtwCYF0oFMpPxnUyWXd3t+F2uwNSymcB/MTn82XVkHshxP1SSoIGYBeab7gNIkkzAQzDwNOP/DQp2YyxlJsGcIOu67x3F0l4BOB2uz9qt9uPCSG+BaAJAH/4vzcNQI0Q4lNCiD1ut3tnQ0NDsdlFpUpeXt5vAYyp5oyPDOHkkeS9lg/4vRjlrX6MWcG4pmnX67q+y+xC0gVpA+Byub4K4GEoDnrJUrfZ7XbP9u3b55pdSCq0tLSEcfbsbWUd3lcpYt6Tr+XZpGUzxlLmFIBLPB4+TeytyBoAl8t1ixDi/4LPF1CxIhKJ7ESWLM6k2g1wqK0V0XCYIuptJsdGETh5jDyXMZY6QognpZQNuq53mF1LuiH5oGlubs4TQnwP/OGvTAhxqcvlusfsOlLh3LqHI6o50UgYB17XCSp6u2Odbck4dIQxlgJCiG4hxEe8Xu+NPp9v2Ox60hFJAxAMBu8AwOezEhFC/KXZNaSKEOIBipxkrNLv7zlFnskYS7pJKeU3YrHYCq/X+5jZxaQzkgZACHETRQ5706otW7bUm11EKsRisQcBKM/U7T52iHwu//DAadI8xlhSdUgp/8Rut1f5fL6/zeYJfzNFtQ1wJVEOOycej68AcNzsOpLN7/d3NzY2/kFKeYVKjpQSHfouXHL9rVSlITg9RZbFGCMXBPA6gBc1TXvK4/H4zC4o01A1ACVEOex/zDG7gFQ5txhQqQEAzo4G3v6hWyAEzVKUWDRCEfNzirMPGGMISimnNU07DaArNzf3WEtLi/JE0WxG1QAMAZhPlMUAaJqWNZvPQ6HQY06n8z8BFKnkjA6dQc+JI6itX0ZSlyMnRzlDCBHxer3fJCiHMcZIUW034284xGKxWKfZNaRKR0fHNACSQzkoFwPmF85SzpBS7mhoaOBhWIyxtEPSAEgpf0uRw970mt/v7za7iFQSQpDMBDjg91LdusfciiqKmFkOh+MWiiDGGKNE0gAkEolHAfAh6XT+P7MLSDWv1/sygJOqOZFwCIfa9hJUBJTXLCTJkVLeSxLEGGOESBoAv98fE0J8DgRHvGY7IcSTWXpGtQTwIEVQh04zGnjpmg0QguQlcnlDQ0MtRRBjjFEhGznr9XpfONcEZOURt0R8UsqP4eyHYdax2WwPgODffuLgfkyMjijX4ywoRO1ikgWFms1mu5siiDHGqJDOnPd6vT8E8CEAXZS5WSAhpfwvp9N5qa7rE2YXY5Y9e/YcB7BbNUdKA/t8NAd+rXVvI8kRQtwLHpXNGEsj5IfO6Lr+XGlp6XIAn5RSPgGgF0CM+joWMAqgTQjxLSHEGp/P97lzJ+RlNarFgG1Eh36t2rQFObm5FFFLmpqamiiCGGOMAtUcgLd5+umnIwB+cu5/jM2YlPJXAL4HQGnr3PBAH053HUdlndpE5ZzcXCxf7yJZV2AYxicA7FEOYowxAllx7CzLHLquTwghfkOR1ealmQmwtnE7SQ6AO3gmAGMsXXADwNLOudHAyjr3epCIq29MWbhsFWaXzSOoCMV2u50PzmKMpQVuAFja0XX9BQA9qjmh6Skc7vAr1yOEwFrXVuUcAJBSfoIkiDHGFHEDwNKRIaV8mCKow0szE2B906UkhwwJIa7evHlzDUFJjDGmhBsAlq5IFpAe62zD1MSYcs7ssnmooTlkSLPZbHdRBDHGmApuAFha8vl8RwAon+9tGAb2t9IsvF9HtBhQSnkfSRBjjCngBoClM6vOBFja1NTkoghijLGLlZQ5AIxR0DTtkUQi8R0hhNKn7plAD/p7ulBeU6dUD/FMgG80Nja+oByUAQzDkAAGbDbb0erqan3nzp0pHRe+efPmRZqmuQCUq/4tsaSJAZg0DGNM07RuKeXBbJ6Kmio8mpSlNbfbvRPAbco5l1+Ha3bco1zPycOdePBfv6Gck8XOCCH+LRgM/mtHR8d0Mi/kdrs/LKX8mhBiQzKvw5JDCNEtpWyRUj5js9me9Xg86gd8sLfhRwAsrQkhHqDI2d+6G4mE+hfPuiUrUFxaRlBR1ponpfxHp9O51+12L0nGBZqbm/PcbvcDAH7DH/6ZS0pZC+DjQoiHE4nEabfb/XBjY2Oz2XVZCTcALK3l5eU9DaBfNWd6cgLHD7Qr1yM0jWwxYJZbDuDVJGyJFMFg8H4A6rd7WNo49+jmTinlH9xut5cbARrcALC01tLSEhdC/IIiq20PzWLAdUQzARjma5r2MAgfRbrd7q8IIW6nymNpyX2uEXh0y5YtJCM6sxU3ACztGYZBshvg6P7XEZqeUs4pKZuH2sXLCSpiALa5XK6bKYLWr18/G8D/pshiGeEj8Xh8v8vlusXsQjIVNwAs7fl8vnYAbao5iXgc+/fSzARYv6WZJIcBQgiS8cg5OTk3ASihyGKZQQgxVwjxa5fL9TXwovYLxg0AyxQkdwGoRgOv3tSEwmL+rCFyJQjevIUQVxDUwjKPEEL8vdvtvn/Hjh02s4vJJNwAsIxgs9kextm9wkoCXccx2BdQr8duh/uya5RzGACgwOVylRLk8BkL2e2e7u7uH4HvBMwY/6BYxnC5XL8TQtyomrP16htxxS13KtcTj8fwg2/8NYb6TytnZbs//+Z/jRXMKpYqGT/9l78v6jl+hIebZTkhxHe9Xu9XzK4jE/AdAJYxhBAkjwHa9V2Q0lDOsdsduOHuT0No/DJSYbPbkV80azbOPr+/6P8Vl5bxhz+DlPLPXC6XeoefBfidi2WM0tLSJwEMq+ZMjY/ixMH9BBUBtfXLcNWtfLifigVLVpBsq+SdGewNQoj/53K5lppdR7rjBoBljKeffjoC4BGKrHbvKxQxAIDGKz6EpqtuIMvLNms2byXJWbF+M+yOHJIslvGKAPwA/Jj7A/GKSZZRKisrB4UQn1bNGRkcwObmq2F3OCjKQv2KNbDn5KDr8AEASo+ys8q8ympcf9d9JHcAcnLzEItG0H3sMEFlLNMJIeqqqqoOBwIBmtt9FsQNAMsop0+fPl1dXX07gLkqOYaRQEnZPFTULiSq7OzjgKq6enQdOYBoOEyWa1U5uXm46wt/hcJZs8kyaxcvx8nD+zExyufGMEDTtM3z58//z76+PvVFPxbEDQDLODU1NUU4u3dcSSg4hQ3EA31K55WjYfuVMAwDfd1dMIyUnnybMQpmFePOz/0lKhcsIs3VNA3L129G36kTGBseJM1mGalY07SjgUCgw+xC0hE3ACzj1NTUdEkpvwTFNSyTYyNYs3krnAWFRJWdZbPbsWjFGmy+9CoUFM/G1MQ4glOTgORHA5qmYf2WZnzkU1/E3IrqpFzDkZODNa5tyC8swulTJxCLRpNyHZYx6gOBwH+bXUQ64gUSLCO53e5nAChP4tl+3c247Kbknx0Tmp5Cz4kjGBkcQHByEuHgFAwjO+5KCiFQMKsYc+ZVYPGqdeQN1wdJJBLoPnoQga7jmBwfRSIeT9m12czFolFMjA6jv6cLkXCIPN8wjA2tra3K48SthvfNsowkpbxfCKHcAHTou9B8w21J38vvLCjE0jUbk3oN9m42mw0Ll6/GwuWrzS6FzUA8HsORjtfwh9/txPAA3YAtm822AwTniVgNPwJgGam2tva4lPILAPJUciKhIOqWrsTsMqU1hYwxAppmw9yKajRsuxyxaAS9J49SRZcGAoHvU4VZBTcALCP19vbGq6qq6oUQ6l+rBbB83SaCqhhjFDRNQ/3KtWcf4Rw7RBE5d+7cud/r7+/n7TlvwYOAWMaiGg188DUfopEIRRRjjNBlN95GNeFR5ObmbqYIshJuAFjG0nV9N4BjqjnRSBgHX9MJKmKMURKahmtv/zhJlpSSF4K8AzcALJNJAA9SBHXor1LEMMaIldfUobxmgXKOEKKSoBxL4QaAZTQhxAMAlPfTdR09iPGRIYKKGGPUFi5T//LODcC7cQPAMprX6+0CoHyyjzQMdOi71AtijJErnVeunCGlzCcoxVK4NO/U1QAAFmZJREFUAWAZj2oxYLvnZUie1sdY2iF6XWbH5K0LwA0Ay3h5eXmPAphWzRkZHEDvCbJ9x4wxIsGpSYoYbgDegRsAlvFaWlqmADxGkdXuVX6awBgjdqxTfYifEKKfoBRL4QaAWYKU8mcUOZ17PQgHlW8mMMaIDAS6ETipvNsXAHopQqyEGwBmCT6fr0UI0a2aEwmHsOf5pyhKYowpklLiuUd/TrUG4CRFiJVwA8CswjAMg2QmgOf5J6jGjzLGFLzy1GM4eWg/SVYikfCQBFkINwDMMs7tBlD+qpBIJPDIf30bp44cJKiKMXahpJRoeWInXn7q11SRXa2trT1UYVbBhwExywgEAiNVVVVXCyFqVLPisRj2t+5GNBJGRe1COHJyKEpkjJ1H78mjeOzH/459vt1kmVLKXwQCAX629w52swtgjNK5uwBbKLISiQT2PPckfC89i8Wr16Nm0RIUFs+GzcYvG8YohUNBDPWfxsnDnRjoPZWMS/wiGaGZTphdAGOU3G73LJxd7Vtkdi2MsbTQpet6PXgOwLvwGgBmKbquTwB4wOw6GGPpQQjxHfCH/3viBoBZjhDiXwBEza6DMWa6M7FY7MdmF5GuuAFglnPugKAfml0HY8xcUsqv+f3+oNl1pCtuAJglaZr2dwDOmF0HY8wcQohWn8/3A7PrSGfcADBL8ng8I0KIPzW7DsaYKUJCiE+Cn/1/IJ4DwCyrt7e3s6ampgbARrNrYYyl1Ge9Xu+zZheR7vgOALM0IcQXAehm18EYS5l/03X9p2YXkQl4DgCzvIaGhjK73b4bwFKza2GMJdVPdV3/JAhGgmcDvgPALM/v9w/Z7fbLABwwuxbGWNL8sLa29tPgD/8Z4zsALGucuxPwawCXmF0LY4xMQgjxVa/X+x2zC8k0vAiQZY2+vr5geXn5Q5qmFQNwgRtgxjLdSU3TbvV6vY+YXUgm4jdAlpXcbvdVAB4HUGB2LYyxi9LudDq3tbS0TJldSKbiNQAsK0kpN4A//BnLZGtDodBdZheRyfgRAMs6jY2N9wL4d/AdMMYymQDwoaqqqo5AIHDI7GIyEb8BsqzS1NR0qWEYLwCwm10LY4zElKZpWzwezz6zC8k03ACwrNHU1FRlGIYfwPxUX1sIAbvDAZvdAbvDAQBIxONIxOOIRsKpLucNIQC7zbo4U9YMkxpZuyMHOXl5EACkPLvrLh6PIRaJvPl/p9gJh8OxadeuXaNmXDxT8bcglhWam5vtwWDwV0KIlHz45+UXoGh2CQqKilFYXIycPOf7/rdSSoSD0whOTmJqfBQToyOIRSOpKNMppfxPn8/3m1RcjNFpbGz8lJTyylRcy+7IQdHsEswqmYP8oiLk5jmh2d776bGUEqHpKYSD05ienMDY4JlU/S0vikaj/w3gjlRczCr4DgDLCm63+68B/FMyr2Gz21E6vwJz5lcgv7DoonOklJgaH8PIQB9GBgcgjaSeZzIUj8fX+v3+vmRehNFxu91LALyOJC5iFZqGkrJ5mFtZjfyiWRDi4j4qpJQITk5gdHAAwwN9SMTjxJW+63r3+ny++5N6EQvhBoBZXlNT05pEItEqhMhNRr7dkYOKBQtRVl4JodFurIlFIzjT243BvgCMRII0+w1Syid8Pt9NSQlnpHbs2GHr7u7eg7NzLMhpNhvmVdVgbmUNHDk5pNnxeAyDgR6cCfQksxEYBbBC1/WBZF3ASngXALM6UVVV9bgQoo48WAjMr67FopVrUFg8+6K/JX0Qm82OWSVzUDq/HJFwCJFQkPwaQohlNTU1r/f29h4mD2ekCgsLPyuE+GwysotLy7B49XrMLpsH2/vc4lehaTYUzS7B3IoqGAkDwckJ8msAcAohKnt7ex9LRrjV8B0AZmkul+suIcRD1Lm5TicWrVwLZ0EhdfQHGjnTj+6jh5JxN+CkpmmrPB5PiDqY0Whqaio1DOMIgDmUuXZHDmqXLMPssnmUsec1MTqCU4cPJGWNgKZpWz0ezx7yYIvhOwDMspqampwAfgugmDK3eE4ZFq/egJy8PMrYGXEWFKJk7jxMjY8hHotSRpdIKccCgQC/aaapysrKbwohmikz8/ILsGTdRhTOmk0ZOyO5TifmzC9HaHoKkTBt3ymlXBYIBPhI4PPgSYDMsqSUnwJQQ5k5r6oW9avWwWY3bwNNrjMfS9dtRMEs0r4GUsqvNjc3p/aWBpuRrVu3VgL4DGVm0ewSLFu/CbkfsEMl2eyOHNSvXo+SueSbc7Y1NjZeRx1qNdwAMEu67rrrcqWUX6XMnFtZjer6JZSRF81md2DJmg0oKi4hyxRCzA2FQl8gC2Rk4vH4X1IuYp1VUorFq9eb2si+QQiBhStWY878CtJcwzD+ijTQgrgBYJY0MjLyMQDVVHlzyitQs3gZVRwJzWbDwlVrqNchfKG5udn8TwX2poaGhjIQfvt3FhZi0cq15DtWVNUuXUG6DkEIcWljY6ObLNCC0usvgDE6ZCulC2YVo3bJCqo4Una749wjCQdVZFUoFLqZKoyps9ls9wDIp8hy5OSiftX69x3kYyYhBBYsW4E8J8k/FQAgpfxjsjAL4gaAWY7L5VoHon3SNpsddctXJWWLH5WcvDzULV9JlieE4DfNNKJp2n0UOW/cas/JTco4DBI2mx0LV66h3IZ4e0NDA+1iGQvhBoBZjhDiXqqs6sVLTV0kNVPFpWWYU07zDFVK2dzQ0ED7QJZdlMbGRreUcjVF1pzyShQWp361/4VyFhSicmE9VVy+w+G4hSrMargBYFYjAJC84Itml5IvTEqmqoVLqB4F2BwOx20UQUyNlPIjFDmOnBzKD9WkK6uoRi7dowCSn6EVcQPALMXtdm8EsIAiq2LBQoqYlLE7HKiorSPJklLeShLEVN1AEVJZVw873TqRpBNCkO24MQzjKt7e+t64AWCWIoQg2ftbNLs0I26XvlNZRRXsDvUZ7lLKpoaGBrrVWOyCbdmypR6A8upTR04OSjPoTtYbikvLSF6DQojccDi8naAky+EGgFmKlPISipyKBXUUMSmn2Wwoq6hSzhFC5NpsNn7TNJFhGJdT5MytrE7rRawfpKxc/W8ZAKSUJD9Lq+EGgFnGuf3rTao5Obm5KCQcsJNqVOsWNE0jaabYxTEMQ3knixACZRVk4zBSbvbceVSPLpTfF6yIGwBmGZFIZAUA5Wd9qT4UhVqu00kyJlhKuZ6gHHaRhBDKDUBhcQnsjsx59v9OmqZh9lyS1+O6HTt2pN/wA5NxA8AsI5FIkGyXyvQGAACKS0kOjNtAEcIuXHNzcx6AVao5s0pKCaoxV3FpGUVM4cmTJxdTBFkJNwDMMjRNU24ANJuN/JAdMxTNJnnjr9i2bVvmPgvJYFNTUwtAcFrrrBLSk4NNQfV6tNlsmbMPMkW4AWCWIaVcpJqRl1+QsQum3iq/sIjk3xGJREi2VLILo2lanWqGzW6HszDzd7/ZHQ6S8cBCCG4A3oEbAGYZUkrl1W/EB+uYRmgacggmGNpstlqCctiFq1MNyIQJljOVXzRLOUNKWUlQiqVwA8AsQwhB0AAUUJSSFogOVSE/qJ3NiPK9e4oGMF04ctRnW4DgZ2o13AAwK1GeGmK3k7zRpAWK1d+GYVjjlkiG0TRNuRPNzcujKCUtUAy3ApD5KyKJcQPArET5HU9omf/8/w0UR75qmsbTAE0gpVRuvDSbnaKUtGAjaGallNbp7olwA8CsRPkFboUFgG8QQv3lzW+a5hBCKP/cpTQoSkkLmqb+tyyE4DkA78ANALOShGoAxYdmukjEY8oZQgj1EHbBpJRR1QzDsE4DIAn+LUII6/xAiFjn3Y4xYFo1IBaNUNSRFuIx9c9uwzCUP4jYRVH+uUspKepIC4lEXDlDSjlFUIqlcAPArES5AYhGwhR1pIU4zR0AftM0gRBiTDUjGgpRlJIWomH1xpwbgHfjBoBZhhBiSDUjGrZOAxANq38ACCH6CUphF25ANSAUtM7nXSQUpIhR/plaDTcAzDKklD2qGeGg8k2EtBAJhxCLqt+9Nwyjj6AcdoEofu7RcBhGQnlZTFogel0qvz9YDTcAzEqUX+Ch6SmSZ+dmC06Mk+TYbLZukiB2QQzDOEaRE5yapIgxVTQcRoTgbpamafy3/A7cADArOaIaIKXExOgwRS2mmqJpAMY9Hs9piiB2YaSUJwAod6Jjw4ME1ZhrcmyUJEfTtAMkQRbCDQCzDE3T2ihyJsdGKGJMI6XE2BDJG/8BANZZSp5B/H5/TAhxWDVnbOgMRTmmGhsm+TdM7Nmzh+8AvAM3AMwycnNzOwAo7/UdGxwk2XZklvGRIZLtjFJKkoaKXRzDMLyqGdFwGNOTExTlmCIei2JilKQh94Ob2XfhBoBZRktLyxSA/ao5iUQcw/2Ze+d7uI+s9lepgthFUW4AAGC4L0ARY4qRgX6qIUCvEJRjOdwAMEsRQrxIkTMY6KWISblIKEi2hsHhcLxMEsQuiqZpJH/LwwN9Gbm9VRoGBnpPkWQZhsENwHvgBoBZipTyBYqcSDiEkYHM2wIfOHmMagLcgd27d2fubRAL8Hq9XQAOqeZIKdHXfVK9oBQb6j9NspUVwPj09PQuiiCr4QaAWUo8Hm8BQDIBpffEUZJ5+qkyOTZKtfgPUsrHSYKYqicoQkYG+jJqxkU8FsXpruNUcc90dnbySOv3wA0AsxS/3x8UQvyOIisei6L3BMl27KSThoHeE8q7IN8khOAGIA0IIR6hyJFS4tThAxlzPsDZ5ptsIe6jVEFWww0AsyKSN00AGO4/TbUKOal6jh9BaIps9OthXddfowpjF8/r9b4GgscAADA9OYG+rhMUUUk1cqaf8vHbcGlpKcldFCviBoBZTiwWewYA2fPrroP70/r26fBAH4YIV3oLIX4A3jKVNqSUP6DK6u/pIhuskwzh4DS6j5L0OwAAKeXDTz/9tHWO+CTGDQCzHL/fHwPw31R58XgMx/a3IU6zIInU9MQ4emjfMCOxWOwBskCmLCcn52cASE7DAYATnR1pORsgFo3g2P42yvMLDAD/QRVmRdwAMKv6gZSSrPOPhsM41tmOeCx9moCp8TEc3fc6DIJ90m8QQjzg9/uVT1VkdHbt2jUqhPgJVV4iEcexfW2Uj4yUxaJRHNvXRr1d8Umfz0e3MMaCuAFglqTr+oAQ4seUmcHJCRxu24swzdGkSiZGhqm/LQFA3DCM/0sZyGhIKb9J2dAm4jEc3fc6pokOjVIRCQVxpH0vQtOkDYkUQvwTZaAV2cwugLFkqaurazMM43MAHFSZiXgco4MDyJ81C7l5TqrYGZNS4kxvN7qPHSKZkPYOP/f5fD+lDmXqAoHARE1NzXwALqpMw0hgZKAPdocdBUXFVLEXZGJkGMc72xGLkD+m/52u69+mDrUabgCYZfX09ExWV1fPBrCFMtcwDIye6UciEUfBrNnQtNTcSItGIjh5oAND/acB+u1cwXg8/pG+vj7zvxKy9zR//vxWTdM+DYC085wYGUY4GETR7BJottR8JBiJBAJdx9Fz7DDpI6xzYgB2BAKBzD8KMcm4AWCWVl1drQP4BIAi6uzpiXGMDvYjz1mAXGc+dfybjEQCg6d7cfLQfoSDSXv88I+tra0k8xNYcvT19QWrq6sjAK6lzg4HpzHUH4AQGgoKiyCEoL7Em8aGB3G8sx0TI0k7dvtfdV1/KFnhVsINALO0QCAQqampCQC4LRn5iXgcI2f6MTE6ArvdjlxnPtmbp2EYGDzdg5MH92NsaDAZt/wBAFLK4zab7e7e3t7MPQIxS2zZsqV1YmLiOgBV1NnSMDA5OoLRwTOw2WzIc+ZDEN3dklJifGQIpw4fwJnebsohP+/UY7fbb+/p6Umf1bppLHltHmNppLGx8Qkp5Q3Jvk5OXh7mzK/ErNI5KCiadcH//9IwMDE6gtGhAUwMDyOe/FHECQDNuq7zrPQMsWnTptU2m80PICeZ19FsNpTOnY/S+RUomFV8UY1taGoKo0MDGDnTn4oDiaQQ4mqv10tyHkg24AaAZYUtW7bMSyQS7QDKU3VNm92BWSWlcBYUIicvDzm5ecjJzX3z8b1hJGAkEggFpxGenkZoegrTk+PUK/vP5591Xf9qKi/I1Lnd7i8D+G6qrqfZbMgvLEJh8Ww4Cwphd+TAbnfA5nBA0wQS8QTi8Rii4TAioSBC01OYHBtN9bbZ7+m6/uVUXjDTcQPAskZTU9O1hmE8Bd7++gZvaWlpM09Ky0jC7Xb/BsBNZheSJvSpqalL+NCfC8NrAFjW6O3tPVZdXR0DcIXZtaSBfrvdfsVLL700ZnYh7OKUl5c/rWnaTQDmml2Lyc4YhnFVW1tb+s44TlN8B4BlG+FyuR4UQnzM7EJMFNI07UqPx7PH7EKYms2bNy8SQniFENnaBEwbhnFZa2trq9mFZCK+FcqyjczPz/8UgGxdKBQXQtzBH/7W0NraegLAhwBk4/yGGIDb+cP/4vEdAJaV1q5dW+B0Op8FsNXsWlLIkFLe5/P57je7EEarsbFxq5TyGQCFZteSIjEp5e0+n+83ZheSyfgOAMtKHR0d0/F4/HoAr5hdS4rEpJT38Ie/NXm93t0ArgIwYnYtKRAGsIM//NVxA8Cylt/vH3c6ndcAsPobSUgIcZvP53vY7EJY8ui67k0kEpcC6DG7liQaAXCVruu/NbsQK+AGgGW1lpaWcG1t7W3A/9/e/bw2EURxAP++mUBLbiqUQkGoCoL1F6U7TQtq6G2lCIL1oDc9ePGgePDiQVFBULR4EqSUFlRQTyp4NAe3TWKWChWEglALiajpxYpWstnnIRWlFPrDZKdJ3+cP2PkeJtk37MwbDNrOUiN5Zj6YTqelze8GkMvl3gFwmLkR93i8L5fLvdK0qnpkD4AQC4wxJ4joPoDaNfaPlhcEwYDv+59sBxHRcl23aXZ29iYRnUUD/M8T0ROt9WnP8+ZsZ2kkdT8xhKgmx3E6lFKjADptZ/kPATNfi8fj11OplPT338CMMf1ENASgxXaWNfoG4Fwmk5FrqmtAGgEJ8Y9CofC1tbV1WGsdonJCoN5+I5NEdDSTyTyYnp6uze1Bom7k8/mptra2YSJqAbAP9bXoe6a1PpJOp1O2gzSqepoMQkSqq6trp9b6DgDXdpYVmCOiy83NzXdl1S+WYow5QES3ABjbWZYxxcwXstnsC9tBGp0UAEIsI5FIuACuMLNjO8sSfhLRPaXUjbGxsS+2w4h1jxKJxAAzXwKwx3aYRT4y89V4PD4iRWw0pAAQYoUWLhO6CCBpOwsqx6GGYrHYoOd5BdthRN0hY8xhpdR5Zu6D3XdBjplvl8vlp77v1/z+a/GXFABCrFJ3d/cuAGcAnASwJcKhGYBHRCOlUumh7/s/IhxbNKienp4dYRieYubjRLQ9omE/A3iklBodHx+fiGhMsYgUAEKsUTKZjM3PzyeZ+RgRucy8tdpjMPMvIvIAvAyC4LHv+zPVHkOIPxzH2a+17mfmPmbuJaKmKj26BMAH8IqZn2ez2QwA2aRqmRQAQlSJMaZdKXUoDENDRB2ofGPdtIpHlJh5hojeEtEEM78JguC1rPSFDa7rNhWLxb1E1KmU2s3M2wC0o3KkcDOWfn98R6UTYR7ABwCTYRhOhmGYk3m8/vwGwv36ffUfMCsAAAAASUVORK5CYII=;absoluteArcSize=1;imageHeight=40;imageWidth=40;align=right;spacingRight=8;fontFamily=Neonderthaw;fontSource=https%3A%2F%2Ffonts.googleapis.com%2Fcss%3Ffamily%3DNeonderthaw;fontColor=#E5E5E5;fontSize=20;fontStyle=4" parent="1" vertex="1">
                    <mxGeometry x="30" y="30" width="180" height="40" as="geometry"/>
                </mxCell>
                <mxCell id="10" value="" style="group" parent="1" vertex="1" connectable="0">
                    <mxGeometry x="630" y="30" width="45" height="40" as="geometry"/>
                </mxCell>
                <mxCell id="6" value="" style="whiteSpace=wrap;html=1;aspect=fixed;strokeColor=#140041;fillColor=#9e63cb;image=data:image/png,iVBORw0KGgoAAAANSUhEUgAAAgAAAAIAEAYAAACk6Ai5AAAABGdBTUEAALGPC/xhBQAAACBjSFJNAAB6JgAAgIQAAPoAAACA6AAAdTAAAOpgAAA6mAAAF3CculE8AAAABmJLR0QAAAAAAAD5Q7t/AAAACXBIWXMAAABgAAAAYADwa0LPAABeyUlEQVR42u3deYCVZd3/8fd1ZoZ9n2FxFxMlN1RAWYQRkHAnTbTM1MLUJytzS0uTcKm0TM02/aW5Z2Eihhmi4IgLiAuYuYCBubHNKMuAyMyc6/cHjlm5gCzXOXO/X/88jz5an5nn8D33/bmv67pBkiRJkiRJkiRJkiRJkiRJkiRJkiRJkiRJkiRJkiRJkiRJkiRJkiRJkiRJkiRJkiRJkiRJkiRJkiRJkiRJkiRJkiRJkiRJkiRJkiRJkiRJkiRJkiRJkiRJkiRJkiRJkqT/FVIH2Ng6HQQH7diuXe4leLf0kEPieGDh0KHhHMhf3atXPA1CbvvtwwzgjQ4duA6YVFaWOrfSiI9B/PGqVeFGoFN1NUD41oIF8RmI1z7xBIshbjdlSv6fUHbA1KlvL4UHHly2LHVuSZIkSVpfRV8AVPSFYcfvtFM8DvJzzj2XgyBe9cUvhgEQvteqVep8aiKWAu1ra+MpQO6GG0p2hdwZV1+9+Bvw4KB581LHkyRJkqRPUnQFwNZnQL/XWrZcfSe0XHrxxRwInHX66YwH6kpLU+dTRpwMjKiri8cDtT/+cU1PqHjx0ksBxt25Zk3qeJIkSZL034qmAKiogsEH9OjBfCipvOsuzgam7LZb6lwSQLweeHf27NLDIf/o5z+/KEBVeOWV1LkkSZIkqVHBFwAVb8DgCXvtFZ+EkuWTJoXRwA2dO6fOJX2o7sC8N97IV0Cu+nOfe+s+eHDl88+njiVJkiRJudQBPkrjE39v/FVU5gM7bLVVOBXyv33ooQ6XwNAO222XOpYkSZIkFdwKgO0iVMYWLWrvgdzA6dPDaKB5r16pc0mfRrwXOHjWrJZ3wDtfHDDg9Sth+jbvvJM6lyRJkqTsKbgVACu3hdxzl1zijb+agnAI8Nc991y9NbS8+Ic/TJ1HkiRJUnYVzAqAxtf5sSfkF/7jH57qr6YkXg+0Wr06/hbyE3v0eOs+qAqvv546lyRJkqTsKJgVAPE4yM8591xv/NUUhdHAqhYtcjMhN/QHP0idR5IkSVL2JC8AOh0EB+3Yrh0HQbzqi19MnUfapJYC7Y89duszoN9rLVumjiNJkiQpO5IXALmX4N3SQw4JAyB8r1Wr1HmkTaoDsKxNm3eAFtWf+1zqOJIkSZKyI3kBEMcDC4cOTZ1D2vxGjkydQJIkSVJ2JC8AwjmQv9rT/pUx34Zw+6BBqWNIkiRJyo7kBUAcBWFy9+6pc0ibU+gLPLnjjp1HQWXs1i11HkmSJElNX/ICINRC/L927VLnkNLZb7/UCSRJkiQ1fckLACnL8sdBOGvgwNQ5JEmSJDV9yQuA2AbCb5YvT51DSiGMhvCMZwFIkiRJ2vSSFwBhHMTh8+enziElcQRQ1qtX+QQYWN62beo4kiRJkpqu5AVAvBPoPWtW6hxSEuOButLSOBea39uvX+o4kiRJkpqu5AVAOA3irlOmpM4hpRTOgrivZwFIkiRJ2nTSFwCrASZOjHOBmStXps4jpRC+BXzFtwFIkiRJ2nSSFwBLxkFVqK3lYeA3d9yROo+UQrwYuHvtFoDee5eVpc4jSZIkqelJXgA0Ch2g4abLLuNkYERdXeo80uYUegB9W7futAra77bXXqnzSJIkSWp6CqYAqK6Ehx+YO5caiF+/6qrUeaQUcpUQq9wKIEmSJGnjK5gCoFHr30LsdOGFjAWOnT49dR5ps7oIqPcwQEmSJEkbX8EVAP8KUBVWrw4PQf6kI45gJHDGa6+lziVtDnEN8JNBg9b+VQip80iSJElqOgquAGi09nDAhQtz8yF0OfRQ+gE7v/566lzSphRGAzd07lzRF4Yd36NH6jySJEmSmo6CLQAaLZ4CU/o9+2xpZ6j76d57x9kQH3z44dS5pE3qbsgv9SwASZIkSRtPwRcAjRb+Hh5pu2RJxz9Dy50+97n4CDDwooviXGDmypWp80kbU/wZxLEWAJIkSZI2nqLfY9x5FFTGbt1iDwhzL7wwngNh7+OPb3ytWup80qcRXwXGzp1b0wqmDt5pp9R5JEmSJBW/oi8A/tvaQqBNmzgMwoOHHML1EJYPGcJw4No994yHQvxp9+5hBrCiQwcuhXBBs2apc0sfJrcHhB9367Z2K8yiRanzSJIkSSpeTa4AUNNQvhqGHHfFFWFr4I0zz0ydJ5X8H4DDv/CFt4bD1DPuuit1HkmSJEnFq2jOAFC2xGlA70cfTZ0jtbAFxGM8C0CSJEnShrMAUEFqdjvUnTRtGhXAkBhT50klnAlMtgCQJEmStOHcAqCCVtEO9n/1pZdoBuGEDB6GdwRQVl8flkJ+UseOS8ZBVaitTR1LkiRJUvFxBYAKWrwYwtGPPJI6RzLjgbrS0vyjEFbuu2/qOJIkSZKKlwWAClrup8DDGS4A3hPaAT9zK4AkSZKkT88CQAUt3gYNB1sAcCKEvhYAkiRJkj49zwBQUahoAUPGvfkmbYBfb7FF6jybW5wLzFy5sqYj5Fd06ABQFerrU+eSJEmSVDxcAaCiEI8AZj/2WOocqYQeQN/WrcsnAOy5Z+o8kiRJkoqPBYCKQugP4Um3AoR/QclBbgWQJEmStP4sAFQU4nbQcJ8FQHwd4q8HDkydQ5IkSVLxsQBQUagZCTBrFmXAUStWpM6TzMnAfoMGpY4hSZIkqfhYAKhoVIX6ek4Htp8xI3WWVEI/YOeuXTuPgsq4446p80iSJEkqHhYAKi43QpzpVgAeh1ydKwEkSZIkrTsLABWVuBw42wIg/yvgj54FIEmSJGndWQCoqJTuCmX/nD6dk4ERdXWp86QSzgZ+5tsAJEmSJK07CwAVlUWTYXKvlSt5EuIWs2alzpNMCfCFnXbqOhyGz+7SJXUcSZIkSYXPAkBFKf4cGJ7hrQDVwNQQ6iZAwxVuBZAkSZL0ySwAVJTiAgh/zHAB8J7czhDPsQCQJEmS9MksAFSUmt0OdSdNm0YFMCTG1HmSGQaxu28DkCRJkvTJQuoA0oaoaAf7v/rSSzSDcMJOO6XOs9kdAZTV14elkJ/UseOScVAVamtTx5IkSZJUeFwBoKIWL4ZwdIa3AowH6kpL8+0ht2yffVLHkSRJklS4LABU1HI/BR7OcAHwnlADlPtaQEmSJEkfzQJARS3eBg0HWwDwHaCZhwFKkiRJ+mieAaAmoaIFDBn35pu0AX69xRap82x2S4H2tbXV9ZAf37EjQFWor08dS5IkSVLhcAWAmoR4BDD7scdS50imA7CsTZuK70PJVXvskTqOJEmSpMJjAaAmIfSH8KRbARgB+VJfCyhJkiTpf1kAqEmI20HDfRYA8Vlgd88CkCRJkvS/LADUJNSMBJg1izLgqBUrUudJ5gQIN7sCQJIkSdL/sgBQk1EV6us5Hdh+xozUWVIJOwDzu3XrvAyG/P0zn0mdR5IkSVLhsABQkxLPBQ5+9NHUOVJrWALxpf32S51DkiRJUuGwAFDTshXEldOmpY6RWlgJuZMsACRJkiT9W0gdQNqYug6H4bNbt27YHurPWbqU8UBdaWnqXJIkSVJBWQq0r63lNODQurr4JeCKt94KCyBesHgxd0F4ZvFiHgJOePnl+CjEmXPnhmmQO/OFF8Ld0PD2008vGQdVobY29Y+jdWMBoCap4kTYv3bGDCZCOGyffVLnkSRJkpqUnhDH5vPsDez44os8DmH6tGlhPoRrHnyw9FJomDJ16oJToCpUV6eOq7UsANQkla+GIcddcUXYGnjjzDNT55EkSZIyZRDwcEMDr0P848MPh7cgdBk/vmQw1O11xx0Lfw+PtF2yJHXMrLEAUJPUaTIMufLII3NfAu75859T55EkSZIEnA/xkjVrYilQN2FCrIRYed11b+0BVeGBB1LHa+osANQkrT0LoEuXhtegfsLChVQDU4Ofd0mSJKlgPfUUs4G2v/51hz9Di+dvu+3lb8N9L7/7bupkTYU3RGrSKtrB/q++9BLNIJyw006p80iSJElaByOBM157jQnAlZdcUl0N+Sk33ABQFerrU8crVr4GUE1avBjC0Y88kjqHJEmSpPUwAbhym23W/sW111a0g/DaP/7ReRRUxgMPTB2vWFkAqEnL/RR42AJAkiRJKmrvreiNUyE39L77yifAkB3++MfGrb+p4xULCwA1afE2aDjYAkCSJElqSsJoYLujj67/JtQ/+9xzFc/DkAuOPjp1rkLnGQDKhIoWMGTcm2/SBvj1FlukziNJkiRpE/guxMtuuaWsPbTJnXrqglNgYp9Vq1LHKhSuAFAmxCOA2Y89ljqHJEmSpE3ocgjnfuUra4DabR9/vMuvYdi0HXZIHatQWAAoE0IrYJ9HH02dQ5IkSdKmF86HcMwee+SbQf7IJ56oOAKGlFRWps6VmgWAMiEeDvnDpk1LnUOSJEnSZnQesFt5eTwEKJs0ae1bBI46KnWsVCwAlAk1IwFmzaIMOGrFitR5JEmSJG0+4Tygf/PmsR5ypXfcUfEGDDn8a19LnWtzswBQZlSF+npOB7afMSN1FkmSJEkJTAMGl5QwDOjzu9+tXRFw4ompY20uFgDKlHgucLBnAUiSJEmZVg1MDWHtioDf/a7it7D/A8cckzrWpmYBoGzZCuJKzwKQJEmSxL9XBLwDtLz55oo6GNZj0KDUsTYVCwBlSumuUPbP6dM5GRhRV5c6jyRJkqQCcCmEC5o14ybILx0/fu3WgB13TB1rY7MAUKYsmgyTe61cyZMQt5g1K3UeSZIkSQXkA28NyF0yfvwW18KhT7ZqlTrWxmIBoEyKPweGP/JI6hySJEmSCtDZwJTddlvTDVa+8ItfpI6zsVgAKJPiAgh/tACQJEmS9NHCaOCG0aMrvgKV8YtfTJ1nQ1kAKJOa3Q51J02bRgUwJMbUeSRJkiQVsErIdfnlL7sMhaHTu3ZNHefTsgBQJi38PTzSdskS3oR44ty5qfNIkiRJKmDvnQ3QcATkV19zTeo4n5YFgDItXgzhaLcCSJIkSfpkYSyEsaNGdb4Z9n9zxIjUedaXBYAyLRwFdHn00dQ5JEmSJBWPOBHCG1deCdB777Ky1HnWlQWAsu1laFg1bVrqGJIkSZKKyBTgu5/9bMXnoN3EE09MHWddWQAo06or4eEH5s6lFvjGggWp80iSJEkqIn0g1l5wwY6/gIN2bN48dZxPYgEgAfEIYPZjj6XOIUmSJKmIXAfhlG23XXoRrN7mhBNSx/kkFgASEFoB+3gWgCRJkqT1Fy+F+MfTTkud45NYAEhAfBtyNb4NQJIkSdL6C+dDOGaPPTodBJWxX7/UeT6KBYAE1NwF9Sc+8wxlwFErVqTOI0mSJKn45C6G3HWnnpo6x0fmSx1AKhRVob6e04HtZ8xInUWSJElS8YnvAquOPrpdPxixdadOqfP8t9LUAaSCciPEmWu3AgQOOCB1nFTyr0LY5sgj32oFU24ePz51HkmSJG0cW58B/V5r2XLVi9B86/LyMBvCyp135psQuvfuHcZD/M2BB7InhOsGDWI8UFfqfeM6CiOBe1q2LGsP717wpS8BcOqvfpU6VyNXAEgfEJcDZ3sWQMhBzO+3X+ockiRJ2rhevxKmb/POO2/dB1Xh9ddr3oSH2jz4YM33YeqSyy+vngkPHTV0KJ2hfpdtt43XQ7z/4ovZE3hm2bLU+YvGnyCce/DBqWP8NwsA6QNKd4Wyf06fzhFAWX196jyphFMh/tYCQJIkKauqfwTTrlqwoGYkPFR24YWl20Ddaz16xOuBr11/fep8Ba8txEn7779dhMrYokXqOI0sAKQPWDQZJvdauZJ/QfzyM8+kzpPMlhB+uddeXYfD8NmtW6eOI0mSpLQW/h4eabtkSc1ImPqVk05q3DLqIdofLgyA8L1WrVbdAmFBZWXqPI0sAKQPEX8ODM/wVoDrgEllZfXbQf12++6bOo4kSZIKy/tnRX0Vwpr994/3QLx68eLUuQpNvj3wswMPTJ2jkQWA9CHiAgh/zHAB8J7wCMSrBg1KnUOSJEmFqfpHMOWMp58Oh0M4/eCDWQq0r61NnatQhAeBsz/3udQ5GlkASB+i7HIoHfrII1QAQ2JMnSeZHwC9Bg5MHUOSJEmFrboapk596qlwBOTHf/WrqfMUjKeBl3v27DwKKmObNqnjWABIH2LtWQCLF/MmxBPnzk2dJ5mzIbzZrx9AZfT1L5IkSfp4S8ZBVbjzTn4DLL355tR5knsRwphcjuMg16VXr9RxLACkjxEvhnB0hrcC1AF3tm1bPgFgzz1Tx5EkSVKReAbqK887zy0Ba+X3gnjZbrulzmEBIH2M3E+BhzNcALwn/AtKDvK1gJIkSVo3ja8RZDTE63/zm9R5UguXAiM/85nUOSwApI8Rb4OGgy0A4uMQ+1gASJIkaf3kekHJ87/9LT0hjs3nU+dJ5vMQ9rAAkApadSU8/MDcudQC31iwIHWeZC4GbrAAkCRJ0vpZ/A14cNC8ebQC5j/1VOo8ycwDfrjllqljWABI6yAeAcx+7LHUOVIJ/YCdu3atqILBB/TokTqPJEmSiks8DTj2b39LnSPZz38wMKeiInUOCwBpHYT+EJ50K0D4MpT81ZUAkiRJWj9xOORGP/NM6hyphKuAncvLU+ewAJDWQdwOGu6zAMifAwy2AJAkSdL6iW9C3HbOnNQ5kv38RwMrWrRIncMCQFoHNSMBZs2iDDhqxYrUeVIJP4D4JwsASZIkrZ/S70H+4pqa1DlSCT8Dzm7WLHUOCwBpHVWF+npOB7afMSN1lmS2hHBjjx5dh8Pw2V26pI4jSZKk4lB6AEB9feocybwAjMm9d/8dQqoYFgDSeojnAgc/+mjqHMlUA1NDyB8JdbWDBqWOI0mSpOLwzhIo6di6deocqcTrgbarV7/3VzFVDgsAaX1sBXHltGmpY6SWHwR0HzgwdQ5JkiQVh7LZ0PD2NtukzpFKeAji/u+8kzqHBYC0Hkp3hbJ/Tp/OEUBZdpcwhTOByZ4FIEmSpHUTewD07Jk6R7KffxiEY99+O3UOCwBpPSyaDJN7rVzJdOCwWbNS50lmOwi37bVX51FQGdu0SR1HkiRJhS3uC7lb+/VLnSOZeyHOWrQodQwLAOlTiH+A+IUMbwUYD9SVljb8ACDDg1ySJEnrJJwN/Cy7K0jDVsA0CwCpKOWmAfMzfBjge8LukCO7g1ySJEkfr9tXYb8VnTtTAnxhp51S50nmGWCvl19OHcMCQPoUwjjIlTzySOocqYXLgL96GKAkSZI+3Jpjoex3gwY1vk0qdZ5k5kN4d+7c1DEsAKRPYfEUmNJv0SLWQLxpzpzUeVKJpwDH9O8PUBlLS1PnkSRJUmEJg4CnfGDEvZCrfPHF1DEsAKQNEC+GcHR2VwKEHkDf1q3Lj4TSG/faK3UeSZIkFZZwOMThgwalzpFMT4hj8/n4V1j9VvpDxC0ApA0QjgK6eBZA6Aj5cs8CkCRJ0lpdh8Pw2a1b0wfCgj33TJ0nmUMgnPnCCzUj4dGaFStSx7EAkDbE5yHXIbsrAN53FPB/FgCSJElaq/4fUPeZfv24DphUVpY6TypxF+D06dNT52hkASBtgOqZ8ODNc+bEeUD3hQtT50klrgF+0ri0K8OHu0iSJAmA0I5Mv/avUe5WyB9XOA8MLQCkjSA8Ckx67LHUOZL9/KOBGzp3rugLw47v0SN1HkmSJCV2IoS+FgBrWQBITcudwG8K5w92MndDfqmDXpIkKcsqY2kpVwOv7Ltv6iypxOnAS4sWLRkHVeHll1PnaWQBIG0E8W3I1VgAxJ9BHGsBIEmSlFXlEwD23JM64M62bVPnSeY64JFp01LH+G8WANJGUHMX1J/4zDMsBdrX1qbOk8ylEFZYAEiSJGVV+BeUHOT1YDgE4r2F94DQAkDaSKpCfT2nAm1mzEidJZWwLTCmR4+K78Og72yxReo8kiRJ2rzi4xD7WADwBQh3WQBITVq8Bril8P6gb25hLuSuHDgwdQ5JkiRtXmE80GvAgNQ5klkKtK+tra6G/JTZs1PH+W8WANJGFP8O+QI65TOV/HEQzrIAkCRJyoqKKhh8QI8etAF+neGVoDdBPOHxx+G9FcIFxgJA2ojKzoJmzz7+OEcAZYX3B35zCRdA6O7SL0mSpMzYEUpaDRqUOkZyd0I4qnAfCFoASBvRoskwudfKlUwHDps1K3WeZPoBf9lzz/IJMLA8w6e/SpIkZUS8E1jsCtBYDhTw28EsAKRNIF4CcX7h/sHf5MYDdaWlcS40v7dfv9RxJEmStIl9Hbg8wysA3lsBnFsG+fZPPJE6zkexAJA2gdybwBcyXAC8J5wFcV+bYEmSpKaqy1AYOr1r18a3QaXOk0wdxLuefnrJOKgKhftacAsAaRMI4yBXYgEQjgRKM9wES5IkNXFxFOQbPPsp/hbCqYV//W8BIG0Ci6fAlH6LFsVXgbFz56bOk0q8DOKja7cAjDqqWbPUeSRJkrRx5QcB3V3xGfMQchYAUradD7Ft4Q+CTSUMgPC9Vq06rYKaVnvumTqPJEmSNq7wJQh/zvCKzwpgSIxlI6HkrEcfTR3nk1gASJtQOBvCmOwWAI1ylRCrXBomSZLUVHQdDsNnt27d+Pan1HmSaQD+PGfO2reBLV6cOs4nsQCQNqXPQ66DBQCjIV5vASBJktRU1F0Ba/bo37/x7U+p86QS74Twr2nTUudYVxYA0iZUPRMevHnOnDgP6L5wYeo8qcQSCDc2Lg0LIXUeSZIkbZiwO+TwAU/uEmh4u/CX/r+fN3UAKQvCo8Ckxx5LnSPZz/894I2KivIJMOSWnXZKnUeSJEkbJnwL+IoFwFrFs+LXAkDaHO4EflM8g2FTCTMgf1yGD4mRJElqAipjaSm/BWr33Td1llQaV/guGQdV4eWXU+dZVxYA0mYQ34ZcjQVAfBFKSnxNjCRJUrEqPxJKb9xrLzoAy9q0SZ0nmZsgHl88e/8bWQBIm0HNXVB/4jPPsBRoX1ubOk8y34W4sysAJEmSilV4DfI/9Hou7AH8vXj2/jeyAJA2k6pQX8+pQJsZM1JnSSUcCnT7zGfKJ8AB1VtumTqPJEmS1tNFQL0rOvkChLuKb4WvBYC0GcVrgFuKb1BsbLnRkB/lF4ckSVKxiQOBEQMGpM6RzFKgfW1tdTXkp8yenTrO+rIAkDaj+HfIF9EpoZtK/hiIHT01VpIkqVisfZvTzjuHHYD53bqlzpPMg7z/dq+qUF+fOs76sgCQNqOys6DZs48/zhFAWfENjI3mSojXWwBIkiQVi5CHmPP6jauANcW397+RBYC0GS2aDJN7rVzJdOCwWbNS50klHAOholevjh3ggGHt26fOI0mSpI8XHwZ2cQtnPBHC0uI7/b+RBYCUQLwE4vwMbwWYBgwuKQn9oeGq7L4/VpIkqWh8G8LtGT79/2RgRF1ds4XQ6qXiPdTbAkBKIPcm8IUMFwDvCadC7OlSMkmSpELVZSgMnd61a+gLPLnjjqnzJDX16acXnAIT+6xalTrKp2UBICUQxkGuxAIgXAJMsACQJEkqVLEcGvbN8JP/RrcAPyv+63cLACmBxVNgSr9Fi+KrwNi5c1PnSSVeBeG1fv0ARh3VrFnqPJIkSfpP+f6Qe9wHNrEL5HezAJC0Ic6H2Lb4B8mnFUYC97Rs2ekgWDxu771T55EkSdJ/Cj8Czs9wAVABDImxtBM0e3bt6/+KmQWAlFA4G8KY7BYA7/8eroGSvhn+YpEkSSownUdBZWzTZu3rq3v1Sp0n3S8CWPPSS2vf5rV4ceo4G8oCQErp85DrYAEQxkLc3wJAkiSpUDTsCyUz+vdnPFBXWpo6TyrxlxB+2XSu1y0ApISqZ8KDN8+ZE+cB3RcuTJ0nlTgYWNj4XtkQUueRJEnKunAoxIk+oImtIf87CwBJG1F4FJhU/HuKPvXP/z3gjYqKTpNh8Hd69kydR5IkKevC94AfWwCUdIawswWApI3pTuA3TWewfFq5n0LJd/2ikSRJSqkylpbyF+CwffZJnSWVxhW6S9rD1N3/+c/UeTYWCwCpAMS3IVdjAcDXgUMsACRJklLpdAPkdundmw7AsjZtUudJ5iaIx0+bljrGxmYBIBWAmrug/sRnnmEp0L62NnWeVGIziH+2AJAkSUol9w2IX/d6LBwP4f+a3gM6CwCpQFSF+npOBdrMmJE6SyphNITRO+zQ6SCojFtvnTqPJElS5lwF7NF4OHOGXQbhZAsASZtQvAa4pekNmvWVGwnhQb94JEmSNq8Q4h5Alwxfhy0F2tfWVv8IGr7z7LOp42xsFgBSAYl/hzwWAHECsGOGv3gkSZI2s/LeUBl33jkcDuH0Ll1S50nmQd5/O1dVqK9PHWdjswCQCkjZWdDs2ccf5wigrOkNnHV2LYR6955JkiRtLmEEgNdfTALGNN0HchYAUgFZNBkm91q5kunAYbNmpc6TSjgd2HmPPTp2gAOGtW+fOo8kSVKTdyTkrrMAiPtCOM0CQNJmFC+BOL/pDp5PNA0YXFJSOhzqHujfP3UcSZKkpi7WA1dluAA4GRhRV9dsIbR6qekeym0BIBWg3JvAFzJcALwn3xfCDzwLQJIkaVPpPAoqY7du4VCg22c+kzpPUlOffnrBKTCxz6pVqaNsKhYAUgEK4yBXYgHAORBeGjQodQxJkqQmayqUDPV6i+kQ95g2LXWMTc0CQCpAi6fAlH6LFsVXgbFz56bOk8xjwIB99gEYdVSzZqnjSJIkNTX5YyB2zPDS//fEZRAvf/TR1Dk2NQsAqZCdD7FtdlcChJHAPS1bdlwFb7Xq3Tt1HkmSpCbnSojXZ7gAqACGxFjaCZo9u/b1f02ZBYBUwMJg4Pmm30R+ktxkyA/P8BeTJEnSRrZ273+bNuE0CMfssUfqPMnsARz04otr38a1eHHqOJuaBYBUyH4EJZOa/l6kTxJ+DpxpASBJkrSxNNRC7rkBAxgP1JWWps6TSvwdxJbZWXFrASAVsOqZ8ODNc+bEeUD3hQtT50nmcxDvX1sAjIk555YkSdIGCqdC7OkDlrgYeDE7K269kJaKQHgUmNT09yR9pCshnNmpU6eD4JE2PXumjiNJklTswiXABAuA0vuhpGt2VtxaAEjF4EKgNDvN5EcJ10LDNb6mRpIkaUP03rusLN4GbL3vvqmzpNK4wnbxN+DBQfPmpc6zuVgASEUgbgO5H2anmfwo4Q5gt4EDU+eQJEkqVp0OgjZP9e4dBkD4XqtWqfMkMxV46OGHU8fY3CwApCJQcxfUn/jMMywF2tfWps6TSnwXwm2uAJAkSfq0wjVQ0tel/2F/oHn2VthaAEhFoirU13Mq0GbGjNRZUglXA89uv33HP8CgJ7bZJnUeSZKkYhPGQtzfAoBaaPhJ9lbYWgBIRSReA9ySndeUfJSSv0Kur1sBJEmS1k8I8Sig14ABqZMksyXEy5cvr94Kut767LOp42xuFgBSEYl/hzwWAJwEuck215IkSeuq02QY/J2ePcNo4IbOnVPnSSUeCuG3jz8OMG5cQ0PqPJubBYBURMrOgmbPPv44RwBl9fWp86QSlwI/tACQJElaV7mfQsl3vX4KAD2yt/e/kQWAVEQWTYbJvVauZDpw2KxZqfOkEn4K8Se7794+QmXs0CF1HkmSpIL3deAQC4B4KeTPzd7e/0YWAFIRipdAnJ/hrQAvQhiTyzVrDSU39++fOo4kSVKhi80g/jnDBcDJwIi6umbXQdunnngidZxULACkIpS7FeIV2V261CjfF+KsDH+RSZIkfYLOo6AydusWRkMYvcMOqfMksxVQ/tRTC06BiX1WrUodJxULAKkIhRoomZHdpUvvux3iFRYAkiRJHyWOhdwPBg9OnSO5P0Ock+EVtO+xAJCK0OIpMKXfokXxVWDs3Lmp8yRzH4RW++67XYTK2KJF6jiSJEmFJp4F8SQfmMRewLEWABYAUjE7H2Lb7A6ycB7Qv3nzVfdArkvv3qnzSJIkFZxrIdRnuACoAIbEWLYU6nd87LHUcVKzAJCKWBgMPO9ZAPlxEM/O8BebJEnSf+l0EBy0Y7t24XRg5z32SJ0nmT2Ag158ceHv4ZG2S5akjpOaBYBUzH4EJZM8CyD8EcL+FgCSJEmNStrAqrkDBjANGFxSkjpPKvF3EFtmd8Xsf7MAkIpY9Ux48OY5c+I8oPvChanzJPMN4O8DBwKMiTnnmiRJyrx8Xwg/WHt9lGnbQviJBUAjL5SlJiA8CkzK8J6m24DbOnbseDY8xC67pI4jSZKU3DkQXho0KHWM1Ep+BLlTLAAaWQBITcGFQKlnAeQGQcl33QogSZKyrffeZWXMhXhW376ps6TSuEJ28TfgwUHz5qXOUygsAKQmIF8FodJmM1wLcUsLAEmSlF0dV0GH3fr0CQMgfK9Vq9R5kpkKPPTww6ljFBoLAKkJeKsVNNz09NMsBdrX1qbOk8yBwK8sACRJUnblJkN+uNdDuTOBG31A9t8sAKQmoirU13Mq0GbGjNRZkrkI2Ga77Tp2gAOGbbtt6jiSJEmbW/g5cKYFQHwYGt62APhvFgBSExKvAW5x0OVegoaefvFJkqSsCSGeCfy8f//USZLZEuLly5dXbwVdb3322dRxCo0FgNSExCsgzPAwwDARmOdrbyRJUnZ0OgiGtf7sZ8No4IbOnVPnSSWeAqF27duxxo1raEidp9BYAEhNSMkMaNj38cc5Aiirr0+dJ5X4OnC5r72RJEnZkZsJ+X1cARk6QDjCB2IfxQJAakKWjIOqUFvLdOCwWbNS50kl/AEYv9tu7frBiK07dUqdR5IkaZP7LsTLLADise79/zgWAFITFC+BOD/Dg68amBpCs6Hw7pQM74GTJEmZETtAWJrhAuBkYERdXbProO1TTzyROk6hsgCQmqDcrRCvcOlTuAzY0rMAJElS09VpFQw9fqutwveBH3fvnjpPMn0hbvPkkwtOgYl9Vq1KHadQWQBITVCogZIZ06alzpFa/i4I4z0LQJIkNV25U6DhJq93+BtwYIZXwK4jCwCpCVo8Bab0W7QozgT6vPxy6jzJLAG+3rfvdhEqY4sWqeNIkiRtdD+B8B1XPMZWwKuugP0kFgBSU/YLiMdmdyVAOA/o37z5qqMB+vRJnUeSJGlji09CmJnhFQAVwJAYy5ZC/Y5rX/+nj2YBIDVhYTDwvE1ofh6U7JDhQ3EkSVKT0+kgOGjHdu3CjcCM3XZLnSeZz0E86YUXFv4eHmm7ZEnqOIXOAkBqwmIOQt69UPwV4sEWAJIkqekoqYJ3fzBwINOAwSUlqfMkczuEL3u9u64sAKQmrGYkTP3KnDnxHohXL16cOk8q4TvAkrV748bEnHNPkiQVvfyxEEe69z/uCeEZC4B15YWw1OTFGJZBOCjDg3EysKRDhy5VMPWXu+6aOo4kSdIGGwuxXYb3/r+nNEB9zPB17nqyAJCy4EKg1LMAGq6GEl+TI0mSityoo5o1YyXwRIYPOW4N8VdvvrloMjy8bP781HGKhQWAlAH5KgiVNqPhJWClS+UkSVLx6tIRal7p0ycMgPC9Vq1S50kl3g1hfHbfdvVpWQBIGfBWK2i46emnWQq0r61NnSeZ7kDl4MGpY0iSJH1aDedA/JeHG8edIbzkA671ZQEgZURVqK/nMOAvTzyROksy04GXtt66wyUwtMN226WOI0mStL7C7yDebAFQcgI03GQBsL4sAKQMiXcB9S6VKtkd8rf4xSlJkopNCHwfwvEDBqROksyWEC9fvnzJOOhy9N//njpOsbEAkDIkXgFhhocBhj8AkywAJElS8ej4Mgy5YJddOA/Yrbw8dZ5U4ikQah97DGDcuIaG1HmKjQWAlCElM6Bh38cf5wigrL4+dZ5kDoTQ1QJAkiQVj9w/ILzr24zCQIiPuvT/07IAkDJkyTioCrW1jAfqZs9OnSeZnwBx113b9YMRW3fqlDqOJEnSJwmTII71bUaMhTDGAuDTsgCQMiheD3GvDJ8FUA1MDaFZA6x+LcN76CRJUvHoCeyR4RUAJwMj6urKDoTWM2bOTB2nWFkASBmUuxXiFZ4FwBjIvepWAEmSVLg6rYKhx2+1FRcB22T4LUZ9IW7z5JMLToGJfVatSh2nWFkASBkUaqBkRoZXALwnvgZ8ywJAkiQVrtxuwBODB6fOkdw8CFVev24oCwApgxZPgSn9Fi2KM4E+L7+cOk8yZcD9ffpsfQb0e61ly9RxJEmS/sfvIf7Cvf9xR2CQK1g3lAWAlGW/gHhsdpvUcB7Qv3nz1X2g1e59+6bOI0mS9N/iixD3zPDe/wpgSIxld0Pd5x9/PHWcYmcBIGVYGAw8b5PK0RDr3QogSZIKR8cOcMCw9u3D3yBsseuuqfMk8zmIJ73wwsLfwyNtlyxJHafYWQBIGRZzEPK+RiX+FeIfLAAkSVLhKJkADecOHMg0YHBJSeo8yTwOYXp2V6xubBYAUobVjISpX5kzJ94D8erFi1PnSSX8AOi2dm/dqFEZ/oKVJEkFIwyFOMAHFLE9hK+5YnVjsQCQMi/G8CywOMOD9U0I323XrvMMqG6+226p40iSJOWnAxMtAEoD1EdXrG4sFgCS4HoIox2s+WMh7ucXrSRJSmfHX8BBOzZvzpsQbsnwIcXdgXlvvLFoMjy8bP781HGaCgsASeSrIFRaAPAEhCMtACRJUjrLtoPVy/r0CaOBVS1apM6TSvwbMNO9/xubBYAk3moFDTc9/TRLgfa1tanzpBIOBPpm+DU7kiQpufxFENp4PRJbQjg7w1tUNxELAEkAVIX6eg4D/vLEE6mzJDMf2GGrrbpGqIzbb586jiRJyp7wLMQ71h5OnGUlJ0DDTa5Q3dgsACS9L94F1LvUqn44lHS0eZckSZtbCPwQYrMBA1InSWZLiJcvX75kHHQ5+u9/Tx2nqbEAkPS+eAWEGS61Cssg3mDzLkmSNp8uVTD4mt1240oIZ3bqlDpPKvFiYOHa69Fx4xoaUudpaiwAJL2vZAY07Pv44xwBlNXXp86TTH+I/VwBIEmSNp+Gh6Bkfw8jDtsBs30gtalYAEh635JxUBVqaxkP1M2enTpPMvdD+N1nP9vtq7Dfis6dU8eRJElNX5gBPOAKRP4BuZ+5JXVTsQCQ9D/i94FLM3zoSjUwNYS6z0PZ3f37p44jSZIyYE+Ih2R4BeL5EC9Zs6asFlo98OSTqeM0VRYAkv5H7nHI989wAfCe8DIwzSZekiRtOp0Ogsq49dZcB+GUbbdNnSeV+BbQ58knF5wCE/usWpU6T1NlASDpf4QaKJnh0it2gFiZ4SZekiRtcuFGyH1z8ODUOVILHSB8ywdQm5oFgKT/sXgKTOm3aFGcCfR5+eXUeZKZCeG1Pn22uBYOfbJVq9RxJElS0xOuhni6h//Fr0PoZgGwqVkASPpoZ0G4IsOD+DpgUllZ3d9g5b59+6aOI0mSmp7YHMK7GS4AKoAhMa75MYRXHnssdZymzgJA0kcKX4H8LRkuABqNgTg2w1/MkiRpo2sfoTJ26BAmQ3x7111T50nmBOCe559f8WN48OaamtRxmjoLAEkfKeYg5C0A4qMQBloASJKkjafsfAhzBw7kRQhjctm9L7sL+L7Xm5tLdj9okj5RzUiY+pU5c+I9EK9evDh1nlTCtRDbDBgAMGpUSUnqPJIkqQn4KvB7HzDE4ZA/wgJgc7EAkPQJYgzPAosffTR1kmTehPDddu06j4LFf9p999RxJElS8YvPQ9jFAqD0UgALgM3FAkDSJ7sewmgHM09DbpqvBZQkSZ/ejr+Ag3Zs3hyAO/r0SZ0nme7AvDfeWBSgKrzySuo4WWEBIOkT5asgVFoA5O8Epg0cmDqHJEkqXsumwaq5ffuG0cCqFi1S50kl/g2YOW1a6hxZYwEg6RO91Qoabnr6aZYC7WtrU+dJJfQHdho8OHUOSZJUvPL3Qu7XrihkH4h3+YBpc7MAkLROqkJ9PYcBf3niidRZkmkD/HqLLbr8GoZN22GH1HEkSVIRmg8874rC3O0QHrEA2NwsACSts/hj4HsO6obvQ/5aD+2RJEnrZ0zM5cLvIJ7Uv3/qLMlsCfHy5cuX7AsV7z73XOo4WWMBIGmdxYkQDrUA4FWI51kASJKkdddlKEybsdtuXAnhzE6dUudJJV4MLFz7dqlx4xoaUufJGgsASeusZAY07Pv44xwBlNXXp86TSjgJwjsWAJIkad01dID4Ta8fwsEQvuQDpVQsACStsyXjoCrU1jIeqJs9O3WeZJ4F7uvZs9tXYb8VnTunjiNJkgpfuB/i1RYA/AlCqQVAKhYAktZb/D5waYYHdzUwNYS6DlD68oABqeNIkqQicAyEmgwXAOdDvGTNmrJaaPXAk0+mjpNVFgCS1lvuccj3z3AB8J4wG7g9w1/kkiTpE3W4BIZ22G47JgBXbrNN6jypxLeAPk8+ueAUmNhn1arUebLKAkDSegs1UDJj2rTUOZL7AoSdLAAkSdJHK9kd8rd4vRD2hbDQ68fULAAkrbfFU2BKv0WL4kygz8svp86TzBtATe/eW1wLhz7ZqlXqOJIkqfCEPwCTLADiYAjXrz39X+lYAEj69M6CcEWGtwJcB0wqK1vTDVbtvO++qeNIkqQCdCCErhkuACqAITGu+TGEVx57LHWcrLMAkPSpha9A/pYMFwCNv4cZEH+V4S92SZL0P9q3h/3269iR30Gs3GWX1HmSOQ8I//jHih/DgzfX1KSOk3UWAJI+tZiDkLcAYAQw1gJAkiT9W+lr0GzofvvxIoQxuezed/0K2NWl/4Uiux9ESRusZiRM/cqcOfEeiFcvXpw6TzLDgBFrXwdYGUtLU8eRJEkFYCrEHiNHpo6RWhwO+SN8YFQoLAAkbaAYw7PA4gw3ux2AZW3aVHwfSq7aY4/UcSRJUlqjRpWUrP3fDj88dZbUGlpBSUdP/y8UFgCSNtz1EEbb7DIC8qWDBqWOIUmS0invDYv/dNhhYTRwQ+fOqfMk0w/Y+fXXl14AU5b+61+p42gtCwBJGyxfBaHSAiA+C+w+cGDqHJIkKY0xMZfjQsgN/OEPU2dJ7iGIX/HJf6GxAJC0wd5qBcuee+aZOBeYuXJl6jzJnADhZlcASJKUReUd4OGvHHdcGA0079UrdZ7UYlfg7xneIlqgLAAkbRRPPV1XF74GvDNjRuosqYQdgPndunVeBkP+/pnPpM4jSZI2vc6joDLuuGPoA0z8xS9S5ykUJdtBbk9XABQaCwBJG028C6h30HMS5HdzJYAkSU1Z1+EwfHbr1vnjIDfwzjuZBezVvn3qXMntCTyzbNniKTBo3+eeSx1H/8kCQNJGE6+AMMOlXvkLoKSjZwFIktQUtY9QGTt0qO8HdT3vv98l//9lH2Da1KkAY0M+nzqO/pMFgKSNJvSAdw+ZPp0jgLL6+tR5kv0ejoK4nSsAJElqSrr8GoZN22GH0nsgN/Chh8JvIBw4YEDqXIUm7gvh5kmTUufQh7MAkLTR1IyER2tWrGA8UDd7duo8yZQAX9hpp7VLA7t0SR1HkiR9WiFUVMCQISefnP825K+YPdsn/h+v5A0Ih99/f+oc+nAWAJI2uvh94NIMvxawGpgaQt0EaLjCrQCSJBWLUUc1a1beAYYcd/zxFTfCkIuffXbt/+Xaa+kALGvTJnXGgtUReOullxZ/Ax4cNG9e6jj6cKWpA0hqenKPQ77/I49EIMfpp6fOk0rIQczvt9/avxo/PnUeSZKyaLsIlbFFi+V3QH5m5865VpDr27Ure0H4fe/ePAPhkqFDwxKorho2jPOA3crLORt4I3X64hG3BIb++c/MBbK7DrTghdQBJBWnUUc1a1ZRBYuWbrdd/idQcmX37uFaiDO7dw97Q7hl773X/pMnn5w6qyRJkjax7pDbZuedq2fCgzfPmZM6jj6cBYCk/1HxfRj0nS22iOdBWbs+fcLDEEcPHMiJwIkHHEBPiGP32osXIYzJuZVIkiQpo+L/QfzbY4/VXAwPNXfrY6GzAJAyrOL7MPTKvfdmAMQjjz46NkBsGDUqjIYweocdUueTJElSMTjllOpqmDr1uutSJ9HHswCQMqBjBzhg2Lbb5o6Chj+ffDLnA5cec0zoCzy5446p80mSJKm4xOuBry1Z0mwhtP7s9tsvOAUm9lm1KnUufTwPAZSaoM6joDLuuWfsC2HmmWeyFBqmfPGLXAccUVbG3akTSpIkqZiF7SD+6+qrF4yEiV/xxr9YuAJAagK6dIShfQYMyO8P8ZmLL2YaMHjo0NS5JEmS1MRsCfHy5cvrZkPss912ywJUhaVLU8fSuvHwLqkIdbgEhnbYbrvyGhiy+A9/yHeFePgjj3jjL0mSpE0pdoRw+y9/6Y1/cXIFgFQEGt9fW/tTCD84/3wGQig/66wwErinZcvU+SRJktTE1QLfWLAg/hHWnLrzzjUj4dGaFStSx9L6sQCQCljHl2HIBbvumvsHMOW228JooHmvXqlzSZIkKVvinhCeOf74mgdgytJbbkmdR59OSeoAkv7TmJjLVbSA0P7MM8MuEC7+4x/Dt4Htt9oqdTZJkiRlzMlAsxkzam6Cqf84/fTUcbRhXAEgFYD2ESpjhw6l50PupDvuCNcB80aMSJ1LkiRJ2RSvB1qtXp2fBvmJffu+/TOoCs89lzqXNoyvAZQS6jocBrfv3r3hdAgLJk7kdmDeLrukziVJkqRsCx0gHnjeed74Ny2uAJAS6HQQVMZ+/cI1kNvq7rtDP2Dnrl1T55IkSVLGXQ3x25MnV38ZHjqicUVqjKljaeNwBYC0GXW+GfZ/c8SIfHsIhzbe+LdokTqXJEmSMq47MO+NN/gHNFSdcMLav+mNf1NjASBtBp1HQWXcb7/8YRDa/vnPoQfQ1xt/SZIkpRUnAIe/807cC8IzRx75ViuYdtWCBalzadNwC4C0CXVcBcOO79+/5DOQ33fSJOqAO9u2TZ1LkiRJGVcBDImRvpD/wbHHVt8CVeGOO1LH0qblCgBpE+g8A4Yc16tXPBzy99x3H3XAa974S5IkqUC8ArHNOedUv+iNf5bkUgeQmpJ2/WDE1p065RdCvOiuu5gF7NW+fepckiRJEgAPQBx2wQXVq+GhM6+4InUcbV6uAJA2klGjSkrKhkJ1u9tvD6MhjN5hh9SZJEmSJABOBkZceGH1nvDQeZdemjqO0nAFgLQRlE+AJdv87GfhOmBe4+tSJEmSpER6Qhybz3MhhOZnnFH9I5h63sUXp46ltFwBIG2ATs9CZTzggHA0hItPPz11HkmSJGVbvB5otXp16AHh/hNOqN4FpvztT39KnUuFoSR1AKkYdToIDtqxXbvc89DQfdIkngH+4F5/SZIkJdIdmPfGG8yH3DcOPLDmmzDlrMmTU8dSYXEFgPQphD/CO3f/7GfsAOFb22yTOo8kSZIy6s/A9PvvD7+E/KoTTqgeB1PDwoWpY6kwWQBI66F8AgxdMWRI2AfilSedlDqPJEmSsqVxiX8cDqH8nHPeagVTpv7qVwCEGFPnU2GzAJDWWQjsBXHRFVdQDUwNIXUiSZIkZUQz4LSHHoq/hdwJp5321kh4cOXzz6eOpeJiASCtg/JFMOS0L30p7Ap8fa+9UueRJElSE1cLfGPBgtgCmHDeeTXVMPWom2/mzdTBVMx8gil9gt57l5WVT4d277zwQjgU6PaZz6TOJEmSpKYlXg98bcmStX/105+W/hJK9/j1rxdNhsm9Vq5MnU9NgysApI9RPgHaDxs9OhwK8Ulv/CVJkrRxxHlA94ULWQzh2SuuKP0/KNnjN7/xhl+bkisApI8UQkUPGNLrhRd4G+i0886pE0mSJKnI9IQ4Np/nUAgrpkwJP4Pws+uuW1INy5bdfTfAU0/X1aWOqWxwBYD0ITo9C5Vx2DCGAkO98ZckSdInaLzRPwt4bcaMeAnkLrjnnpJjIRf+9KfF34AHD5k3L3VMZZsFgPQhco9BePAb30idQ5IkSQWi8QZ/SwgtX3op1kPYd8aM3BMQVz/8cK4llL1w772LjoDJgxcvfv/fewoYlDq8tJZbAKQP6HQQVMatt85tDbkR8+czHqgrtSiTJEkqVo037r0hzFm2jLshDnjnnfgLoMXq1WEGhP9bsiRuAfF7r74angN2f+WVuATCiFdeiT+E/Mw5c+JgKDtg5sy3l8IDDy5blvrHkj4Nb2ykD8htCbm/jBrljf+ntCXEy5cvZx6w5t57+TbEAVOmxBeh9MbZs8vaw7tHvfLKwt/DO5VLl4J73iRJ0ib2CDD1vf/5QSM/5J+d9CF/7y58bKomw4+y9AHlEYaMeuih0BmorqxMnafgrYF405w5vADhm5ddVjYRWl94xx0LToGJfVatSh1PkiRJ0r9ZAEjAFtdCZayoqPsb5EoXLmQaMLikJHWuQhMnAIe/804YBjH+4AfVqyGecfXVAFWhvj51PkmSJEkfzSXOEvDuMAh/PuSQ3Pl44/8h4qvA2Llz8xdCftCRR769GqrCc88BcGbqdJIkSZLWhQWABOT2BLYYMYIWqZMUlvg08P+eeabsNKjrOmLEwt/DI2HJktS5JEmSJK2/XOoAUiGIf4dwd9++qXMUisYn/mVjPnDj39Ybf0mSJKmYeQaAMq19e9hvv44dy7aAss/V1FANTA2Z/XMRrwdarV6d6wZ07Ndvyb4w9dbZs1PnkiRJkrThXAGgTCuZBiXTevfO+o1/o3AMxGEXXOCNvyRJktT0WAAo08LlEC7v3Tt1juTee53fB0/1lyRJktS0WAAo234NHPKZz6SOkdwLEL552WXg6/wkSZKkpsoCQNk2F8LArbZKHSOZLSFevnx52URofeEdd6SOI0mSJGnTsQBQttUDF2y5ZeoYycwD1tx774JTYGKfVatSx5EkSZK06VgAKNsWAt0yvALg2xAHTJmSOoYkSZKkTc8CQJk1JuZy4VxgfkVF6iypxBeh9EZP+5ckSZKywAJAmfUQuVzWX//XbATUnzh/fuockiRJkjY9CwBlVpdRucx//hecAl1GLV+eOockSZKkTS/zN0DKph1/AbWzsvvkX5IkSVL2WAAok+q+BavmWgBscS0sHteuXeockiRJkjY9CwBl0r8CdDm6ro6eEMfm86nzpPLuV6DkhB12SJ1DkiRJ0qZnAaDMGjeuoSFeDnSork6dJZXc5yH+pFev1DkkSZIkbXoWAMq2yRDCokWpY6QS/wCUDh2aOockSZKkTc8CQJkWmgOvZrcACF2Bkw89tOtwGD67devUeSRJkiRtOhYAyrZXgSELF6aOkUwHYFmbNg3fgLrnvvjF1HEkSZIkbToWAMq2BUDbuXNTx0gtjoCwzbnnAvTeu6wsdR5JkiRJG58FgLLtdcjXP/106hiphW2BMT16lE+Admd85zup80iSJEna+CwAlGn5Kig54ZlnUucoKHdcdFGng6Ay9uuXOookSZKkjSekDiAVgvKXYciWCxeGfsDOXbumzpNanAd0X7gwfy/Un7rPPm9/Cabt89prqXNJkiRJ+vRcASABLANWPvVU6hiFIuwAzO/WLbccSrafOHHtioCtt06dS5IkSdKnZwEgAWFHYMtJk1LnKDThfAjH7LFHOBVytz79dMVtMLTD4MGpc0mSJElafxYAEpC7DXLXTZyYOkehCqOBGzp3ju9AXH3//RVHwJCSCy/sOhyGz27dOnU+SZIkSZ/MMwCkD6j4Nuz/5j/+we0QvrzLLqnzFLrGswK4EjjjootKH4HS/M03L5oMk3utXJk6nyRJkqR/K0kdQCokrY6G7iu2245HgLcGDkydp9CFq4GlbdqEJ4D7Djkkvgj5x7/97ZZPQfev9OrV6nzY/rjy8pa7Q/c5paXtVkGPB+vqVs6D3tV1dQDPP9/QkPrnkCRJkrLAFQDSB3SeAUOO69UrHgK8MWtW6jySJEnayE4GRtTVxX2BrZYuDb+CmH/llXgn0HvWrHAaxF2nTIlHQX3FvffWjIRHa1asSB1b2hgsAKQPUTEe9r/tscf4OoTf9e+fOo8kSZI2r/gYxB+vWsULEOb+4Q+hAzTcdNll1ZXw8ANz56bOJ30aHgIofYj87kDza69NnUOSJElphAEQvteq1drDkEePZhKUHPCPf1ScAvvXXH75dhEqY4sWqXNK68MVANKH2PoM6Pday5arK6BF9euvcyWEMzt1Sp1LkiRJBWIscOz06bwB9f848sjqH8G0qxYsSB1L+jgWANLH6FwC+9f+6EexI4TDvve91HkkSZJUYPoBO7/+em4VhBMPOWTxFJjS79lnU8eSPoxbAKSPsaYeYuvLL+fLwJfffjt1HkmSJBWY6cBLW2+d/yfk2913X6dVMPT4rbZKHUv6MBYA0sdYFqAqLF3KPhDO/vnPU+eRJElSgVoJ4bQtt8xtC/G1CRMat5SmjiV9kAWAtA7C3dDw9lVXxXsgXr14ceo8kiRJKmS9e79zCrS89rzzUieRPsgCQFoHS8ZBVaitZWvgyQsvTJ1HkiRJhS3sBjx35pmdR0Fl7NYtdR4JLACk9VKzLTz0teuui0uAiqqq1HkkSZJUoDoAy9q0iT0gzPUBkgqDbwGQPoWuw2Fw++7d6/8EJQ1//3voAfRt3Tp1LkmSJBWWOBeYuXIlD8Oa5ltsUTMSHq1ZsSJ1LmWTKwCkT2HRZHh42fz5/AZoedFFqfNIkiSpMDU+KAoLoOyPBx+cOo+yzQJA2gA134eK/a+4gqshfnvy5NR5JEmSVKAugHDp0KGpYyjbLACkDTRuXEPDmmug+be++MV4PcTr581LnUmSJEkFZixw7B57pI6hbLMAkDaC5dNh0utvvRVmQG7CqFFxAnD4O++kziVJkqTCEPeCuO8OO6TOoWyzAJA2ouofwZQznn6aaog7fv3rVABDYkydS5IkSYk9D2Gf9u1Tx1C2WQBIm0DNSHjosNtui3UQu3zrW6nzSJIkSZIFgLQJ1fwTHjr1V7+KZwLPnXtu6jySJElKZBeITyxbljqGss0CQNoMar4PU5dcfnlcAkwZOzZ1HkmSJG1e4RkIMzwsWmlZAEibUU2AqeGHP4ztIR7zzW8yCHi4oSF1LkmSJG1iNwLls2enjqFsswCQEnh/a8BNEM4/4og4F5i5cmXqXJIkSdo0wnwI1zz4YOocyraQOoAkqKiAIUN696Y7MG/CBOYDO2y1VepckiRJ2jCND3pyJ0N+RbduS8ZBVaitTZ1L2eQKAKkAVFfD1KlPPfXuAZCr7NWLSyCeP3586lySJEnaQCUQp99+uzf+KgSuAJAK2NqVASefHB+D+OMrrwwDIHyvVavUuSRJkvQJzod4yZo1ueZQkv/sZxd/Ax4c5CGASssVAFIBW7sy4LrreAHC3L335ovAVu4dkyRJKniHAhN//nNv/FVIXAEgFaHy5TD0wsMOYyrkT7zqqjAawugddkidS5IkKfP+H8STHn+8w2vQcsyQIS9/G+57+d13U8eSwAJAKmrbRaiMLVqsrIdc2zPP5Cag5Zlnch6wW3l56nySJEmZMRI447XXwnLIH7bPPmv3/C9cmDqW9EFuAZCK2L8CVIXVq6vLYGrtj35U8kcofWC77fgnsPD007kQeO1f/0qdU5Ikqcl678Y/dzw0/OuQQ7zxVyFzBYDUxFXG0tLyCRAmHnNMuAR4d/RomgNdKit5EcKYnEWgJEnS+npvqX+4HeKxRx7pjb+KgQWAlEHlE+CA6i23DPdAw2PHHMMTwL+OPZYFwF19+qTOJ0mSVHDeO9U/nA30uuKK9ldCyz3HjnWPv4qJBYCk9zUWA/SDhjH77x8OBYYNHkwL4OnKSl4AHu3ZM3VOSZKkTS3OBWauXBl6AH1vuy13EeQuuuwyT/VXMbMAkLTOun0V9lvRuXP9UijrsMsuHA/x5h13pAzCfj16xNuA/7fjjqEGYo9tt+UdCHPbtmUUcEfLlvwTOK9dO1oD1W3acB0wqaws9c8lSZIy5L0n+XFfoO3SpWEihHPmz2cexB7PPMOFEDpMnRrGQP7iv/517dL+2trUsSVJkiRJkiRJkiRJkiRJkiRJkiRJkiRJkiRJkiRJkiRJkiRJkiRJkiRJkiRJkiRJkiRJkiRJkiRJkiRJkiRJkiRJkiRJkiRJkiRJkiRJkiRJkiRJkiRJkiRJkiRJkiRJkjaVkDqAJGnddOwABwxr3z43FOJxO+1ET6g/ceedWQy5ZT170gvirJ12CjkIc7fZJlYD/Vq3Zk+IrVu3DlMgTOnYke0hfrZ16/f/g1+B8MLKlXEoxKFvv80sCCtXrgwVwPSVK2MeYo/XXmM2hD3nzKEL5Nu/+CIvQumNL72UnwLh1jlz3l4KDzy4bFnq35MkbWzOX0lNhQWAJBWIzqOgMrZp0/ADgH79cq9C7tUDDuBE4MQDDqAnxLF77cWLEMbkcqnz/rd4PcTr580LoyGMfuCBAAQeeGBNHaype+CBZcvgkUfefjt1Tkn6b85fSVlhASBJm1n7CJWxQ4eyzpAbevTR8T6Ipxx3XPgRhC8PGMA0YHBJSeqcG80g4OGGhvhLiHWPPhq+CmHhrbfWTYL8FuPGLQtQFZYuTR1TUtPn/HX+SllnASBJm9CYmMtVfB+q5h50UNwXwoHHHw/AZw8/PIwGVrVokTpjKvF6oNXq1QC8cM89oQPw25tuqq6EwcP/9jeAsSGfT51TUnFy/n4056+UXRYAkrQRjYm5XPlymDbmkENoAfkzfvjDsCWEI/feO3W2onEWsOIf/4iXAT0vv7xmKeRvuf12gKpQX586nqTC5PzdCJy/UpNnASBJG6AylpZWfB/gxBPj4ZDb5bzzwqFAt898JnW2piLOBPq8/HKYBXHPn/yk+giIx950E3hBKmWZ83fTc/5KTY8FgCStp/IJUBn79AkXQO6Xv/kNC4C7+vRJnSsr4vXAu7Nn5wDmnnbakpEwdcmjj6bOJWnTc/6m5fyVip8FgCR9gnb9YMTWnTqV9YY1+4wZE2ZD/M43v1mop0FnRgUwJEa+BvHAW28tmQxlzc8+e9FkmNxr8eLU8SRtOOdvgXL+SkXLAkCSPkJ5b6iMn/98OBLCrOuv50oIZ3bqlDqXPsJPgOdqauI/IN4/enTNlfDQXhMmpI4laf05f4uM81cqGhYAkvQBlbG0tGIi5F695BLOBm767nepBqYG52WxeO/JVBwGzLrmmppfQUXunHMAxt25Zk3qeJI+nPO3CXD+SgXPgSop87oOh8Htu3dvCJD7xR//yNMQbuzbN3UubSSHQvzLE0+U/B5i62OOWRSgKrzySupYkpy/TZ7zVyo47p2SlFmNh0nVfxNKfjljhheeTdRECIfts0/DjyDMeuqpjqtg2PH9+6eOJWWZ8zcjnL9SwXEFgKTMKT8JhiwdOjTcC9x2993UAXe2bZs6lzaPOBeYuXJl7mTIrzjqqCXjoCr87W+pc0lZ4PzNNuevlJ4rACRlRqfJMOTKI4+kH9Dtr3/1wjObQg+gb+vWcQCExyZMqNgBhvb80pdS55KaMuevwPkrFQJXAEhq8t6/wNgS8tfdequvj9J/6AlxbD5Pd4iDvvzl6lugKtxxR+pYUlPg/NXHcv5Km50FgKQmq3xL2L922DAuglBx773hPKB/8+apc6lAnQyMqKsLPSEef9hhS46Hh7acNCl1LKkYOX+1Xpy/0mZjASCpySk/Eob9vm/fcA/kJ0yZQgdgWZs2qXOpOMTHIP541ar81lDy6wMOeLsVPHjz44+nziUVA+evNoTzV9r0XIIlqclofJ0UB0H+wb/+1QtPfRphAITvtWqVmwz54RMmdI1QGbffPnUuqZA5f7UxOH+lTc8CQFKT0HvvsrKGb0Du17fdFr4HvFFRkTqTilsYDdzQuXPDCAg3/+lPAKOOatYsdS6p0Dh/tbE5f6VNxwJAUtEr/zm0++VPf8rXIfzO9wtrI3vv/eTlq6G6xY9/nDqOVEicv9qknL/SRmcBIKloVfSFynjooeE64IFvfzt1HjVtYU9gpzPOKO8NlfHzn0+dR0rJ+avNyfkrbTweAiip6HT7Kuy3onPn+h2h9OUXX+RKCGd26pQ6lzLiJ8BzNTVlDZBf3LPnglOgKlRXp44lbQ7OXyXl/JU2mCsAJBWdug5Q+vJll3nhqSTOA3YrL1/TD0o6uiRV2eL8VVLOX2mDWQBIKhqdJ8CQzgMHhvsg/OXEE1PnUbaF0yB/z9e+1nEVDDvevc9q2py/KiTOX+nTswCQVBQqY2lpHqDHr35FNTA1uIVJab0IYUwul/sp5M+59lpY+zlNHUva2Jy/KjjOX+lTswCQVPAqPge5BV/9ahgNNO/VK3Ue6YPCNcC3d9+94g3IjTz++NR5pI3J+atC5vyV1p8FgKSCNmpUSUm8G3j5nHNSZ5E+TnwNmPv974NPotQ0OH9VLJy/0rqzAJBUsMonwJLjv/jFsC0wpkeP1HmkjxMOBbp95jMVO0DJZ0eNSp1H2hDOXxUT56+07iwAJBWoEMLbEGadd17qJNJ6ORTyUy64AGBMzPk9qyLk/FWRcv5Kn8g/GJIKTsX3Yf85Bx/M2cCU3XZLnUdaL7dD+PIuu3RuBdNuHjEidRxpfTh/VdScv9InsgCQVHDiFsCbJ5yQOoe0IfKvQTzIQ6lUXJy/agqcv9JHswCQVDA6doADhrVvz94Qnjn00NR5pA3yCPDVz3++fYTK2KFD6jjSx3H+qklx/kofyVMyJRWMklJoyB9zDCOBe1q2TJ2n6GwJ8fLly5kHrLn3Xr4NccCUKfFFKL1x9uyy9vDuUa+8svD38E7l0qWN/1q3r0LLqg4d6pZB8zu33z7UQn7EnnvGPwClQ4eG3YBxhxxCHXBn27apf8xiEUYDq1q0KPt/EG7/whfW/t3rr0+dS/owzt8N5PwtKM5f6aOF1AEkqVH5TNj/jocfDgdBuHbQoNR5Ct4aiDfNmcMLEL552WVlE6H1hXfcseAUmNhn1aqN9V+zxbVw6JOtWtV1gdqXvvSlOALCNuee6+ng66gZcNpDD1W/CVOPGjIkdRzpwzh/15Pztzg4f6X/YQEgKbnGpaclQ6DhoZoapgGDS0pS5yo0cQJw+DvvhGEQ4w9+UL0a4hlXXw1QFerrN2eW3nuXlZVPgHZnfOc7ANxx0UWNT1xS/54KzhFAWX19/nVoMa+8/K374L6Xly9PHUsC5++6cv4WKeev9D88A0BScrmboOHEykovPD9cfBUYO3dufjzkv7PPPtWr4aEzr7gCNv+FZ6Onnq6rqxkJU7/y05/G30J+4pAh1ALfWLAg9e+r4IwH6kpLc3vBO3/1yaoKi/P34zl/i5zzV/ofFgCSCkJ8xqV5/y0+Dfy/Z54pOw3q9ho48O2fQVV47rnUuf7bW/dBVZg+PT8E8kfts0+8FOIfn302da5CEy+EcNHQoalzSP/N+fu/nL9Ni/NX+jcLAEnpLQTO84u5UeMTp7IxUNd1xIiFv4dH2i5ZkjrXJ1l7Ifr66/FuiJ0POSTOA7ovXJg6V8GYDfTyc64C4/z9D87fJsr5K73PMwAkJfP+3tNu0FD59ttUA1NDZudS4x7TxqWmhfrEaV11OggqY79+4QuQa/nQQ+E8oH/z5qlzJdMT4th8Pp4DdUd06FAzEh6tWbEidSxlk/P3Pzl/mzjnr/Q+VwBISia8Cfmtdt456xee7/8+3jtcqtgvPBs1Lk0N9wJ1P/pR6jzJvQhhTC4HUFq9886p4yjbnL//9ftw/jZtzl/pfRYAkpIJhwP3+EXc+DqpD54q3ZSEUsjX//znLkn9tzDRz73Scv6+x/mbOc5fZZ0FgKR0Pgf5b+60U+oYyb33HmlId6r0prRkHFSF2lquBM646KLUeZLbGcIMP/dKzPm7lvM3W5y/kgWApISqIXytZ8/UMZLZEuLly5eXTYTWF95xR+o4m1rpI1Cav/lmyoCjMrz38h2gpU+glJjz1/mbRc5fyQJAUjqhP8THt9oqdY5k5gFr7r13wSkwsc+qVanjbGqLJsPkXitXxr8CS//619R5kpkOzNh669QxlG3OX5y/WeT8lSwAJCW0DMK8tm1Tx0jm2xAHTJmSOsbmFoYDD2Tv537fYuDSdu1Sx1DGOX+dv1nk/JUsACQltBy4KbsXoPFFKL1x9uzUOTa3fF/IT3n22dQ5ktkCWNCmTeoYyjjnr/M3i5y/kgWApIRaAcuy+0XcbATUnzh/fuocm1tZPTR7dt681DlSCTngyz6BUmLOX+dvBjl/JQsASSmtgHh3dp9ALTgFuoxavjx1js2t7WFQ+oVly1LnSCUCrMjujZcKhPPX+ZtBzl/JAkCSJEmSpEywAJCUTlsIn8/u64i2uBYWj8veUsQVf4H6P7dvnzpHKgGgbW1t6hzKOOev8zeDnL+SBYCklFYB7bP7RbxmEpTe2L176hybW10prNljhx1S50gl5oHbsrf0WAXG+ev8zSDnr2QBICmldsAJ2X0CFWohP2LPPVPn2Ow/97UQft+rV+ocySwAtsjujZcKhPPX+ZtFzl/JAkBSQu0h7pDdC9D4B6B06NDUOTa7CcAOw4aljpFMF+B8n0ApMeev8zeLnL+SBYCkdOLjEPq/8UbqHKmErsDJhx7adTgMn926deo8m1rjzxnOgHDVQQelzpNMP2Df119PHUPZ5vzF+ZtFzl/JAkBSQhUQb3jxxdQxkukALGvTpuEbUPfcF7+YOs6m1hCgvvOxxzb+3KnzJNMSeOell1LHUMY5f52/WeT8lSwAJCW0FOLFfhHHERC2OfdcgN57l5WlzrMpjDqqWbN4GsTV552XOktyHYG3/dwrsaXOX3D+Zo7zV7IAkJTQi1B6o1/EYVtgTI8e5ROg3Rnf+U7qPBtbeW+oeerMM8NoCKOze/p0o7Ar8LyfeyXm/AWcv1nj/JUsACQlFN+BZpe+9BIVwJAYU+cpCHdcdFGng6Ay9uuXOsqG6tIRhvYZMID/g7jghz9MnSe5nhDH5vPxeljz7Jw5qeMo25y/H8L523Q5f6X3WQBISuat++C+l5cvj2dAPPXvf0+dJ7UwGljVokX4I+RGjx/f8Q8w6Ilttkmda32VT4ADqrfcMr8jxCV/+lM4D+jfvHnqXKnF2yFsOXt2zUh4tCa7p6+rMDh//5Pzt2lz/kr/ZgEgKb1uwE+mTEkdo1CEHYD53brllkPJ9hMnrn0itfXWqXN9kvcvmGdBw4K//Y35wA5bbZU6V6EIA4F3/JyrwDh//4Pzt2ly/kr/ZgEgqSCEvaZOTZ2h0ITzIRyzxx7hVMjd+vTTFbfB0A6DB6fO9d86roJhx/fvnzsESn/7xBPhGuDbu++eOlfBuRVY4AWoCo/z9385f5sY56/0PgsAScnlT4CSG6uqOAIoq69PnafQhNHADZ07x3cgrr7//oojYEjJhRemfH/1qKOaNStvBUN+9b3v5W6H/J+mTm18cpb691Vw3vtcx6Ww5kvTpqWOI32Q8/fjOX+LnPNX+h8hdQBJalT+Buyfr6oKvSAMK7wnLYUmzgO6L1zIlcAZF11U+giU5m++edFkmNxr5cqN9d/TeKHb8AzUf+fLX47XQ7z+3HM9VXoddYd42tSp1TPhoaOGDk0dR/owzt/14/wtEs5f6X9YAEgqGBWfgyFvfv3rPA18+brrUucpOkuB9rW1cSbQ9957KYe4xdSp8QEIP501q+wPUHrH/PmLJkOHi5cubfzXug6HpT/o0KHuS1D/xe7dQzmEQ/faCyD+eciQ8AVgj4MPpgOwrE2b1D9m0ZkNtB09unormHrPDTekjiN9GOfvBlqK87cQOX+l/2EBIKlgdOwABwxr3z53LzQcumBBGAnc07Jl6lzSpxGvB1qtXl1/OOQnbrHFsgBV4d8X/lIhcf6qKXH+Sh/NMwAkFYy3l8IDDy5bRjVwzV/+kjqPtEH2A35/991eeKoYOH/VpDh/pY9kASCp4IQOwG9vuil1DmlD5LaBcN/NN6fOIa0P56+aAuev9NEsACQVnOpKmPq5++7jZ8DQ555LnUdaL8dCvO3555esgkHHT5qUOo60Ppy/KmrOX+kTWQBIKlAxxo4Q9/zJT1InkdbL2xC3uPhigLEhn08dR1p/zl8VKeev9Ik8BFBSQRs1qqSkfBVUf+uFF8K2wJgePVJnkj5MnAn0efnlmu5Q8UrPngDjxjU0pM4lfVrOXxUL56+07lwBIKmgjRvX0BAmQXztsstSZ5E+Tu67kL/80kvBC081Dc5fFQvnr7TuLAAkFbzqI6Dz3TfeGO8FDp41K3Ue6YPimxDvevrpJeOgy9G33JI6j7QxOX9VyJy/0vqzAJBUFMaNa2iIu0P4+ymn0BPiWPf2KbH3Pof5eig5/ZvfBJ88qWly/qrgOH+lT80CQFLReKsVTLn5iSfiKAjfvfHG1HmUbfGvQKfrr3+7FTx48+OPp84jbUrOXxUS56/06XkIoKSis8W1UBkrKupKINflxRc5D9itvDx1LmVD/DGwVXX1mnmQy/XsueLH8ODNNTWpc0mbg/NXKTl/pQ3nCgBJRWfBKVAVqquZB/HRE06gAhgSY+pcauIaP2fPQzzrpJO88FQWOX+VhPNX2mgsACQVreofwUM73XtvvBPiSVddlTqPmrgtIa644oqaK+GhvSZMSB1HSsn5q83K+SttNBYAkopezW6w4tBzz+X/QTzJvYDayA6F+JcnnqieAp3nn39+6jhSIXH+apNy/kobnWcASGoyukaojNtvX38P5G594okwGrihc+fUuVSc4j0Qr168OH8wlJ7Rt+/bS+GBB199NXUuqRA5f7UxOX+lTccVAJKajEUBqsIrrwDkjzv4YMqAo1asSJ1LRea9z02YCLkHDzrIC0/pkzl/tVE4f6VNzhUAkpqs8pNgyNKhQ+kHdPvrX8N5QP/mzVPnUoE6H+Ila9bk74fQ7rDD3roPpu5+//2pY0nFyPmr9eL8lTYbVwBIarJqfgdTO0yZEqog/86JJ9IT4th8PnUuFZjGz0VL4J3jj/fCU9pwzl+tE+evtNm5AkBSZnSaDEOuPPLIsAp44LbbwmhgVYsWqXMpkfeeOPE0xAEnnFB9C1SFO+5IHUtqipy/+g/OXykZCwBJmdO4NDU8AXHu+PG8CeG77dqlzqXNZCnQvrY23ADx10cdteR4eGjLSZNSx5KywPmbcUtx/kqJuQVAUuY0Lk1de+E5dGjjacOpc2nTitOBlxYtogOwbP/9vfCUNj/nbzY5f6XCYQEgKbOqq2Hq1Keeyv8LGlb36RP/D+LfHnssdS5tZHtDPHHmzNL/g4aV/fs3/v89dSwpy5y/GeH8lQqOWwAk6QMqY2lpeYQcF1wQBkGc9oMf8CKEMTkL02JRAQyJMQ4DZl1zTc2voCJ3zjkA4+5csyZ1PEkfzvnbBDh/pYJnASBJH6F8Agy55fDDwxLgzBtu4Dxgt/Ly1Ln04eKPga2qqzkGwg5f+1pNO5hy0V/+kjqXpPXn/C0uzl+peFgASNInaN8e9tuvY8fS46Csyw9/GGZD/M43v+mTqcTee9LE1yAeeOutpS9A/WfPOmvh7+GRtkuWpI4nacM5fwuU81cqWhYAkrSeKipgyJDevdfubfzNb3gawo19+6bOlRXxXuDgWbNKDoTwx9NOW/w2THnSvcNSFjh/03L+SsXP5lSS1lPjIUbV90Pnif37MxtoO3p0fBUYO3du6nxNzhqIN82ZE4ZAfspXv1qzL1Q80aePF55S9jh/NzPnr9TkuAJAkjaiMTGXK18O08YccggtIH/GD38YtoRw5N57p85WNH4GDH3uufgd4KWf/rRmKeRvuf12gKpQX586nqTC5PzdCJy/UpNnASBJm1QInVvB0JsOPDD/KMTXTziBVUCrww8PI4F7WrZMnTCVOAE4/J136Al8ecKE3DYQ7rv55iWrYMoJf/vbe/9UTJ1TUrFy/n4U56+UXRYAkrSZdewABwxr377k91D/taOO4jQIzY87jkOA6/bbj/FAXWlp6pwbzRFAWX099wInP/IIM4Gbb7mlYVcoWfnnP7+9FB54cNmy1DElNX3OX5y/UsZZAEhSgeg6HIbPbt267gpYs0f//rlXIffqAQdwInDiAQfQE+LYvfYq1NOv4/UQr583L4yGMPqBBwIQeOCBNUugYcrkycsCVIWlS1PnlKT/5vyVlBUWAJJUJMonwMDytm0BSqt33pl+kPvmTjsxHeJVPXsChJ133pknIb6w9dZsDSxr04ZuQG2bNuE5YFmHDrQCVrVp8/5/8CqgVW1t3A1ov3QpC4E2tbW8DrSvreVICD977TVehfjdOXPoB+E7L74YdgWef+mleD2seXbOnJqR8GjNihWpf0+StLE5fyVJkiRJkiRJkiRJkiRJkiRJkiRJkiRJkiRJkiRJkiRJkiRJkiRJkiRJkiRJkiRJkiRJkiRJkiRJkiRJkiRJkiRJkiRJkiRJkiRJkiRJkiRJkiRJkiRJkiRJkiRJkiRJktSU/X8sVxDGyO6pBwAAACV0RVh0ZGF0ZTpjcmVhdGUAMjAyMi0wMS0xNVQwNToyNjoxOCswMDowML/JDRMAAAAldEVYdGRhdGU6bW9kaWZ5ADIwMjItMDEtMTVUMDU6MjY6MTgrMDA6MDDOlLWvAAAAAElFTkSuQmCC;spacing=0;arcSize=40;absoluteArcSize=1;imageWidth=24;imageHeight=24;imageAlign=center;rounded=1;spacingLeft=0;fontFamily=Poppins;fontSource=https%3A%2F%2Ffonts.googleapis.com%2Fcss%3Ffamily%3DPoppins;" parent="10" vertex="1">
                    <mxGeometry width="40" height="40" as="geometry"/>
                </mxCell>
                <mxCell id="7" value="4" style="ellipse;whiteSpace=wrap;html=1;aspect=fixed;rounded=1;strokeColor=#140041;fillColor=#C64D8C;fontSize=8;spacing=0;spacingBottom=1;labelPosition=center;verticalLabelPosition=middle;align=center;verticalAlign=middle;fontStyle=0;fontFamily=Poppins;fontSource=https%3A%2F%2Ffonts.googleapis.com%2Fcss%3Ffamily%3DPoppins;" parent="10" vertex="1">
                    <mxGeometry x="30" width="15" height="15" as="geometry"/>
                </mxCell>
            </root>
        </mxGraphModel>
    </diagram>
</mxfile>